<?xml version="1.0" encoding="UTF-8" standalone="no"?>
<svg
   xmlns:dc="http://purl.org/dc/elements/1.1/"
   xmlns:cc="http://creativecommons.org/ns#"
   xmlns:rdf="http://www.w3.org/1999/02/22-rdf-syntax-ns#"
   xmlns:svg="http://www.w3.org/2000/svg"
   xmlns="http://www.w3.org/2000/svg"
   xmlns:sodipodi="http://sodipodi.sourceforge.net/DTD/sodipodi-0.dtd"
   xmlns:inkscape="http://www.inkscape.org/namespaces/inkscape"
   version="1.1"
   id="Capa_1"
   x="0px"
   y="0px"
   viewBox="0 0 1200 628"
   xml:space="preserve"
   sodipodi:docname="og_image1.svg"
   width="1200"
   height="628"
   inkscape:version="1.0.2 (e86c870879, 2021-01-15)"><metadata
   id="metadata274"><rdf:RDF><cc:Work
       rdf:about=""><dc:format>image/svg+xml</dc:format><dc:type
         rdf:resource="http://purl.org/dc/dcmitype/StillImage" /><dc:title></dc:title></cc:Work></rdf:RDF></metadata><defs
   id="defs272"><rect
   x="104.88637"
   y="73.978544"
   width="1022.0366"
   height="462.33116"
   id="rect1148" />
	
	
</defs><sodipodi:namedview
   pagecolor="#ffffff"
   bordercolor="#666666"
   borderopacity="1"
   objecttolerance="10"
   gridtolerance="10"
   guidetolerance="10"
   inkscape:pageopacity="0"
   inkscape:pageshadow="2"
   inkscape:window-width="1366"
   inkscape:window-height="747"
   id="namedview270"
   showgrid="false"
   inkscape:zoom="0.40406102"
   inkscape:cx="114.15795"
   inkscape:cy="245"
   inkscape:window-x="0"
   inkscape:window-y="21"
   inkscape:window-maximized="1"
   inkscape:current-layer="Capa_1" />
<rect
   style="fill:#afdde9;fill-opacity:1;stroke:none;stroke-width:35.534"
   id="rect1108"
   width="1209.6885"
   height="638.17993"
   x="-3.6736407"
   y="-0.70300674"
   ry="0" /><g
   id="g221"
   style="fill:#333333"
   transform="matrix(2.385497,0,0,1.4769735,17.584987,-37.933992)">
		<path
   d="m 393.872,454.517 c -2.304,0 -4.583,-0.804 -6.412,-2.354 L 354.89785,425.3879 67.233938,421.74238 c -37.559,-0.001 -68.2484907,-30.72761 -68.11499951,-68.495 L 0,103.977 C 0.13349115,66.209615 30.556,35.483 68.115,35.483 h 353.77 c 37.559,0 68.24849,30.727615 68.115,68.494 l -0.88106,249.27038 c -0.13349,37.76739 -30.556,68.494 -68.115,68.494 h -18.071 L 403.814,444.517 c 0.15023,3.88343 -2.243,7.428 -5.752,9.067 -1.339,0.626 -2.769,0.933 -4.19,0.933 z M 68.115,55.483 c -26.592,0 -54.187788,21.754436 -54.282301,48.494 l -0.881062,249.27038 c -0.09451,26.73857 27.691099,48.16122 54.282301,48.494 l 291.295912,3.64552 c 2.34593,0.0294 4.616,0.834 6.411,2.354 l 18.98415,15.2661 -0.88106,-11.26562 c -0.42854,-5.47946 4.453,-10 9.945,-10 h 28.015 c 26.592,0 57.10396,-17.96627 57.19847,-44.70484 l 0.88106,-249.27038 C 479.17798,81.026594 448.477,55.483 421.885,55.483 Z"
   id="path219"
   style="fill:#333333;fill-opacity:1"
   sodipodi:nodetypes="scccssssssscscscssssccssssssc" />
	</g>
<g
   id="g239">
</g>
<g
   id="g241">
</g>
<g
   id="g243">
</g>
<g
   id="g245">
</g>
<g
   id="g247">
</g>
<g
   id="g249">
</g>
<g
   id="g251">
</g>
<g
   id="g253">
</g>
<g
   id="g255">
</g>
<g
   id="g257">
</g>
<g
   id="g259">
</g>
<g
   id="g261">
</g>
<g
   id="g263">
</g>
<g
   id="g265">
</g>
<g
   id="g267">
</g>
<path
   style="fill:#808080;stroke-width:0.424854"
   d="m 1107.5839,626.96604 c -7.1138,-0.53696 -6.901,-0.51012 -7.2934,-0.92016 -0.2007,-0.20965 2.6603,-0.24257 6.607,-0.076 6.2281,0.26283 6.9339,0.22349 6.7048,-0.37373 -0.164,-0.42723 -0.023,-0.66748 0.3928,-0.66748 0.357,0 0.5368,0.18159 0.3997,0.40354 -0.5061,0.81879 1.3797,1.09891 5.9347,0.88157 3.3991,-0.16218 4.3838,-0.3238 3.6113,-0.59273 -0.8706,-0.30309 -0.4967,-0.43608 2.0736,-0.73754 1.7246,-0.20227 3.3974,-0.58505 3.7174,-0.85061 0.3869,-0.32105 0.5818,-0.33251 0.5818,-0.0342 0,0.24676 0.5258,0.50915 1.1684,0.58309 0.8397,0.0966 1.1332,0.34357 1.0435,0.87792 -0.1144,0.68103 0.4192,0.74349 6.3514,0.74349 4.0166,0 9.1226,-0.33358 13.4438,-0.87831 3.832,-0.48308 7.0635,-0.78218 7.181,-0.66468 0.1175,0.1175 -0.5228,0.33391 -1.423,0.48089 -0.9001,0.14699 -3.1661,0.54096 -5.0354,0.8755 -1.8694,0.33454 -6.0754,0.79939 -9.3468,1.03298 -7.1056,0.5074 -28.9533,0.45686 -36.1126,-0.0835 z m 20.1806,-1.11686 c 0,-0.19473 -0.5652,-0.35405 -1.2559,-0.35405 -0.6907,0 -1.1574,0.15932 -1.037,0.35405 0.2851,0.4613 2.2929,0.4613 2.2929,0 z m 3.555,0.0202 c 0.1134,-0.18359 -0.162,-0.33381 -0.6122,-0.33381 -0.4502,0 -0.8185,0.15022 -0.8185,0.33381 0,0.1836 0.2755,0.33382 0.6122,0.33382 0.3367,0 0.705,-0.15022 0.8185,-0.33382 z m -39.2473,-0.33492 c -3.6924,-0.61113 -7.2403,-1.69133 -8.2801,-2.52096 -0.8323,-0.66412 -0.8291,-0.67226 0.1594,-0.39804 0.685,0.19002 0.9158,0.12885 0.7185,-0.19043 -0.3646,-0.58986 -0.1682,-0.58887 1.3249,0.007 2.3325,0.93027 11.4411,2.09114 16.597,2.11522 3.177,0.0148 5.2045,0.19015 5.2045,0.45 0,0.26262 -1.5416,0.38081 -4.0244,0.30855 -2.2134,-0.0645 -4.1554,0.014 -4.3156,0.17419 -0.1603,0.16023 -0.5001,0.12762 -0.7553,-0.0725 -0.6719,-0.52682 -4.0752,-0.89271 -4.0752,-0.43812 0,0.21143 0.5623,0.38442 1.2495,0.38442 0.6872,0 1.3594,0.1778 1.4937,0.39512 0.2947,0.47697 -1.5789,0.40122 -5.2969,-0.21414 z m -1.9073,-1.45555 c -0.4673,-0.20082 -1.3276,-0.35595 -1.9118,-0.34473 -0.9638,0.0185 -0.9441,0.0504 0.2124,0.34473 1.7691,0.45017 2.747,0.45017 1.6994,0 z m -3.6112,-0.84971 c 0,-0.23367 -0.3346,-0.42192 -0.7435,-0.41835 -0.6354,0.005 -0.6509,0.0664 -0.1062,0.41835 0.8017,0.51816 0.8497,0.51816 0.8497,0 z m 29.7397,2.12427 c 0,-0.23367 0.1912,-0.42485 0.4249,-0.42485 0.2337,0 0.4248,0.19118 0.4248,0.42485 0,0.23367 -0.1911,0.42486 -0.4248,0.42486 -0.2337,0 -0.4249,-0.19119 -0.4249,-0.42486 z m -6.6914,-0.3043 c 0.6426,-0.0973 1.6941,-0.0973 2.3367,0 0.6426,0.0973 0.1168,0.17699 -1.1684,0.17699 -1.2851,0 -1.8109,-0.0796 -1.1683,-0.17699 z m 24.4556,0.0141 c 0.3067,-0.12272 0.6732,-0.10763 0.8143,0.0335 0.1412,0.14117 -0.1097,0.24159 -0.5576,0.22314 -0.4949,-0.0204 -0.5956,-0.12106 -0.2567,-0.25668 z m -20.4324,-1.27265 c -0.6071,-0.16357 -0.7039,-0.48398 -0.4904,-1.62215 0.1463,-0.78007 0.082,-1.74691 -0.1426,-2.14852 -0.3244,-0.57976 -0.4695,-0.32437 -0.704,1.23954 -0.2585,1.72389 -0.4247,1.96976 -1.3315,1.96976 -0.9447,0 -1.0361,-0.16859 -1.0361,-1.91185 v -1.91184 h -2.1242 c -2.3314,0 -2.6588,0.24269 -1.1178,0.82858 0.6241,0.23728 1.0942,0.83865 1.2371,1.58269 0.2952,1.53716 0.082,1.72583 -0.9243,0.81566 -0.5301,-0.47972 -0.9068,-0.57673 -1.0898,-0.28063 -0.5391,0.87235 -0.973,0.4375 -1.242,-1.24478 l -0.2714,-1.69731 -8.3876,0.0248 c -4.6132,0.0137 -8.6737,-0.0859 -9.0235,-0.22118 -1.1471,-0.44372 -2.1227,-2.7603 -2.1255,-5.0467 v -2.19606 l -0.6592,1.26415 c -0.3625,0.69527 -0.5705,1.6032 -0.4621,2.01763 0.1084,0.41442 0.024,0.86055 -0.1879,0.99142 -0.2118,0.13085 -0.4171,1.23035 -0.4564,2.44333 -0.065,2.00009 -0.088,2.0477 -0.2441,0.51138 -0.095,-0.93172 -0.3661,-1.92706 -0.6024,-2.21188 -0.2364,-0.28481 -0.2882,-0.74694 -0.1152,-1.02694 0.1849,-0.29911 0.1351,-0.3981 -0.1208,-0.23998 -0.4822,0.29804 -3.7148,-3.00514 -6.1621,-6.29675 -1.8941,-2.5476 -1.6026,-2.17972 -5.0118,-6.32334 -3.8987,-4.73855 -7.6237,-9.74773 -7.6203,-10.24744 0,-0.23367 0.5532,0.23898 1.2259,1.05034 1.1328,1.36637 1.4956,1.50098 3.5944,1.33356 0.9353,-0.0746 1.2089,-1.36645 0.4128,-1.94857 -0.3902,-0.28536 -0.5859,-0.71901 -0.4347,-0.96364 0.1512,-0.24463 -0.011,-0.55441 -0.3599,-0.6884 -0.3492,-0.13397 -0.6349,-0.44077 -0.6349,-0.68178 0,-0.65021 -1.5841,-2.11478 -2.7785,-2.56891 -0.5749,-0.21855 -1.0452,-0.65925 -1.0452,-0.97932 0,-0.32007 -0.3824,-0.92799 -0.8497,-1.35092 -0.4673,-0.42294 -0.853,-0.97833 -0.8571,-1.2342 -0.01,-0.51629 -1.8417,-2.37706 -2.3424,-2.37706 -0.4289,0 -1.4436,1.36847 -1.4604,1.96964 -0.016,0.58603 3.1343,5.36534 4.0235,6.10335 0.35,0.29048 0.6351,0.8393 0.6336,1.2196 0,0.49383 -0.2145,0.38444 -0.7435,-0.3827 -0.962,-1.3952 -2.0893,-2.74941 -3.9271,-4.71792 -0.8178,-0.876 -2.1561,-2.48215 -2.974,-3.56922 -2.1321,-2.83405 -9.1386,-11.32989 -10.7275,-13.00801 -0.409,-0.43186 -0.7435,-0.88595 -0.7435,-1.00907 0,-0.12313 -1.1801,-1.77107 -2.6225,-3.66209 -2.7504,-3.60599 -4.5257,-5.02687 -6.2995,-5.04168 -0.5841,-0.005 -2.496,-0.40229 -4.2485,-0.88315 -1.7525,-0.48085 -4.1423,-1.06807 -5.3107,-1.30491 -1.1683,-0.23684 -2.3154,-0.58179 -2.5491,-0.76655 -0.2337,-0.18477 -1.5164,-0.64888 -2.8505,-1.03136 -1.3341,-0.38248 -2.5822,-0.97522 -2.7736,-1.3172 -0.4325,-0.77279 -0.1354,-4.33922 0.3025,-3.63078 0.1801,0.29148 0.568,-0.64112 0.9064,-2.17929 0.3753,-1.70615 1.0077,-3.15461 1.7302,-3.96337 l 1.1387,-1.27456 0.8793,0.93816 c 0.4837,0.51598 0.8794,1.10128 0.8794,1.30066 0,0.19938 0.4268,0.82062 0.9485,1.38052 0.5216,0.55991 0.9518,1.3129 0.9559,1.67332 0,0.42306 0.4168,0.66222 1.1624,0.67484 0.6352,0.0108 1.6035,0.44093 2.1517,0.95592 0.5482,0.515 1.3323,0.93637 1.7425,0.93637 0.6438,0 4.3249,2.21398 4.9349,2.96807 0.5535,0.68421 3.5213,1.75288 3.8778,1.39636 0.7638,-0.76383 0.7828,-2.27298 0.032,-2.52766 -0.3977,-0.13488 -1.9658,-1.44412 -3.4847,-2.90942 -6.5609,-6.32972 -8.7221,-8.27414 -9.1967,-8.27414 -0.2779,0 -0.7724,-0.10248 -1.0988,-0.22773 -0.3264,-0.12525 -1.12,0.26023 -1.7635,0.85664 -2.1137,1.95886 -2.1063,0.60834 0.01,-1.4933 1.128,-1.1211 2.1979,-1.94752 2.3775,-1.83648 0.1797,0.11105 0.3267,-0.12667 0.3267,-0.52826 0,-0.8035 4.2338,-5.45492 5.027,-5.52285 1.1649,-0.0998 1.3072,-0.2011 1.0872,-0.77438 -0.2359,-0.61489 1.1997,-2.36954 1.9387,-2.36954 0.2231,0 0.8938,-0.48826 1.4906,-1.08501 0.5967,-0.59675 1.2662,-0.973 1.4877,-0.8361 0.5016,0.30997 0.061,1.59133 -0.7054,2.05343 -0.3146,0.18961 -0.4559,0.5326 -0.314,0.76218 0.1419,0.22958 -0.058,0.89977 -0.4444,1.48931 -0.5775,0.88144 -0.8143,0.97896 -1.3325,0.54888 -1.1486,-0.95328 -2.0223,0.50839 -1.9498,3.26215 0.05,1.91135 0.3039,2.71766 1.2411,3.94547 0.6478,0.84874 1.7206,2.58875 2.384,3.86667 0.6634,1.27792 1.6616,2.77891 2.2182,3.33554 1.2871,1.28709 1.6741,2.50131 1.0406,3.26467 -0.6485,0.78145 -0.1323,1.70027 0.6095,1.08467 0.2927,-0.24299 0.6581,-0.316 0.8118,-0.16225 0.1538,0.15375 0.2796,0.0625 0.2796,-0.20278 0,-0.26877 0.3028,-0.36615 0.6838,-0.21994 0.6285,0.24117 0.6285,0.29335 0,0.64506 -0.3761,0.21047 -0.6687,0.80333 -0.6503,1.31748 0.018,0.51414 0.13,0.69583 0.2479,0.40374 0.4304,-1.06671 0.8103,-0.48584 0.8907,1.36189 0.045,1.04112 -0.1042,2.00833 -0.3324,2.14934 -0.7683,0.47485 -0.4629,1.90566 0.4067,1.90566 1.0238,0 5.3585,4.2066 5.7444,5.57472 0.5301,1.87885 1.2218,2.92235 1.9371,2.92235 0.8229,0 2.3896,1.5697 1.9778,1.98157 -0.4343,0.4343 0.5832,1.41726 1.4671,1.41726 0.4387,0 0.7977,0.28678 0.7977,0.63728 0,0.35051 0.2113,0.63729 0.4697,0.63729 0.7884,0 2.972,2.03911 2.3912,2.23297 -0.2883,0.0962 0.1998,0.51866 1.0847,0.93871 0.8849,0.42004 1.8809,1.26434 2.2134,1.87621 0.3326,0.61186 0.6123,0.93947 0.6216,0.728 0.026,-0.59126 1.7164,1.07916 1.7164,1.69626 0,0.29855 0.3824,0.66417 0.8498,0.8125 0.4673,0.14832 0.8497,0.50752 0.8497,0.79822 0,0.2907 0.3823,0.93896 0.8497,1.4406 0.4673,0.50163 0.8497,1.11533 0.8497,1.36378 0,0.24844 0.4336,0.64931 0.9637,0.89082 1.0166,0.46319 2.86,2.85528 2.86,3.7113 0,0.27763 0.3823,0.50478 0.8497,0.50478 0.4673,0 0.8497,0.18559 0.8497,0.41243 0,0.35975 2.3844,4.10798 2.9808,4.68581 1.0769,1.04335 2.506,3.11381 2.3375,3.38651 -0.1158,0.18731 0.1697,0.44001 0.6344,0.56153 0.4647,0.12153 0.8449,0.41214 0.8449,0.64581 0,0.72248 -1.8452,-0.0135 -3.1858,-1.27061 -0.7013,-0.6577 -1.8965,-1.31339 -2.6559,-1.4571 -0.8672,-0.1641 -1.3932,-0.52022 -1.4143,-0.9575 -0.019,-0.38291 -0.2353,-0.12266 -0.4819,0.57835 -0.2466,0.70101 -0.6331,1.50853 -0.859,1.79449 -0.5992,0.75879 1.7,4.30071 3.7994,5.85288 0.9482,0.70101 1.8332,1.75252 1.9668,2.3367 0.2667,1.16684 2.2903,3.66782 2.8444,3.51553 0.1916,-0.0526 0.4697,0.45713 0.6181,1.13285 0.2441,1.11112 1.4925,2.22031 1.4925,1.32601 0,-0.20446 0.3824,-0.27175 0.8497,-0.14954 0.4674,0.12221 0.8497,0.48668 0.8497,0.80993 0,0.32326 0.1912,0.58773 0.4249,0.58773 0.2336,0 0.4248,-0.83148 0.4248,-1.84774 0,-3.83575 0.5547,-8.35669 1.0187,-8.30263 1.241,0.14457 1.4146,-0.14354 1.3721,-2.2766 -0.024,-1.22677 0,-4.97398 0.057,-8.32714 l 0.1014,-6.09665 1.4445,-1.4445 1.4445,-1.4445 h 4.291 c 2.36,0 4.291,-0.17074 4.291,-0.37941 0,-0.72968 1.4567,-0.95217 1.9367,-0.29578 0.3319,0.45395 0.6055,0.51219 0.9215,0.19619 0.3032,-0.30324 0.7061,-0.31212 1.2385,-0.0273 0.6625,0.35441 0.799,0.25849 0.8504,-0.59793 0.056,-0.92722 -0.1039,-1.02007 -1.7536,-1.02007 -1.0617,0 -2.0257,-0.25401 -2.3228,-0.61203 -0.2794,-0.33662 -0.8112,-0.49568 -1.1817,-0.35348 -0.579,0.22218 -0.6348,-0.026 -0.3964,-1.7649 0.2416,-1.76274 0.1563,-2.12146 -0.6622,-2.78422 -0.7244,-0.58657 -0.8302,-0.89355 -0.4621,-1.34055 0.3408,-0.41379 0.3655,-1.67439 0.086,-4.40345 -0.2731,-2.66994 -0.2487,-4.16848 0.081,-4.96639 0.2595,-0.62849 0.3572,-1.32818 0.2171,-1.55486 -0.1401,-0.22668 -0.1349,-0.72444 0.012,-1.10612 0.2448,-0.63794 0.3273,-0.6388 1.0214,-0.0107 0.4371,0.39562 0.8614,0.51115 1.0077,0.2744 0.4137,-0.66941 -0.2149,-2.97222 -0.8811,-3.22788 -0.4387,-0.16835 -0.5488,-0.0208 -0.3803,0.50991 0.1498,0.47225 -0.081,0.94515 -0.6268,1.28628 -1.1509,0.71877 -1.5499,0.39533 -1.7629,-1.42921 -0.1764,-1.51133 -0.1674,-1.52095 1.194,-1.26556 1.0611,0.19907 1.4034,0.10077 1.5116,-0.4341 0.1031,-0.50988 0.6977,-0.71878 2.2641,-0.79556 1.1684,-0.0573 2.4111,-0.19857 2.7616,-0.314 0.3505,-0.11543 0.4939,-0.12968 0.3186,-0.0317 -0.5286,0.29561 -0.3328,1.9647 0.3338,2.8461 0.5088,0.67278 0.724,0.72461 1.1548,0.27814 0.4254,-0.4409 0.3416,-0.67622 -0.4264,-1.19734 -1.449,-0.98311 -1.1816,-1.26944 1.487,-1.59237 1.3436,-0.16259 2.8409,-0.55034 3.3274,-0.86166 0.4864,-0.31132 1.1201,-0.42038 1.4082,-0.24235 0.585,0.36158 2.5931,0.0863 2.5931,-0.35552 0,-0.40933 -17.8076,-0.78006 -23.6924,-0.49324 -0.3138,0.0153 -0.5109,0.51278 -0.4733,1.19456 0.035,0.64259 -0.1575,1.71936 -0.4289,2.39281 -0.2714,0.67346 -0.3798,1.58252 -0.2409,2.02016 0.1607,0.50642 0.01,0.88895 -0.416,1.05223 -1.5603,0.59872 -2.7418,6.96176 -1.2927,6.96176 0.3455,0 0.6281,0.1799 0.6281,0.39978 0,0.45344 -0.8496,1.07094 -1.487,1.0807 -0.2336,0.003 -0.4547,0.77124 -0.4911,1.70592 l -0.066,1.69942 0.329,-1.48699 c 0.2807,-1.26879 0.3446,-1.33113 0.4352,-0.42486 0.1475,1.47377 -0.01,2.2922 -0.4914,2.59253 -0.2471,0.15345 -0.3534,2.78861 -0.2656,6.58523 0.081,3.48118 0.081,5.80365 0,5.16106 -0.1612,-1.29852 -0.5805,-1.47409 -1.3387,-0.56051 -0.7281,0.87725 -0.679,2.81266 0.1142,4.50771 0.8191,1.75021 2.0005,9.40525 1.4218,9.21234 -0.2186,-0.0729 -0.946,-2.13153 -1.6165,-4.57484 -0.6704,-2.4433 -1.3875,-4.95243 -1.5935,-5.57583 -0.2291,-0.69315 -0.2146,-1.29341 0.037,-1.54525 0.2658,-0.26582 0.2481,-0.51298 -0.05,-0.69725 -0.2539,-0.15699 -0.4618,-0.47663 -0.4618,-0.7103 0,-0.23367 0.1912,-0.3067 0.4249,-0.16228 0.2337,0.14442 0.4248,0.052 0.4248,-0.20541 0,-0.25739 -1.6728,-2.09775 -3.7174,-4.08969 -2.0446,-1.99194 -3.3966,-3.46549 -3.0044,-3.27456 0.3921,0.19093 2.0821,1.64869 3.7555,3.23947 2.1808,2.07313 3.3025,2.85242 3.9603,2.75146 0.5518,-0.0847 0.8601,-0.39103 0.773,-0.76805 -0.2442,-1.05683 -0.1033,-11.90913 0.1602,-12.33543 0.136,-0.22006 0.1162,-0.61224 -0.044,-0.87152 -0.5476,-0.88608 -0.9289,-14.38598 -0.4292,-15.1946 0.1651,-0.26702 0.035,-0.47843 -0.2948,-0.47843 -0.3249,0 -0.8531,-0.49039 -1.1738,-1.08977 -0.4999,-0.93403 -0.495,-1.1456 0.034,-1.48048 0.8013,-0.50685 1.372,-0.51194 1.0615,-0.009 -0.4783,0.77385 1.6021,0.93547 11.98,0.93069 11.3804,-0.005 16.523,-0.17791 16.9129,-0.56785 0.4971,-0.49705 -3.1723,-0.74179 -11.068,-0.73822 -9.7244,0.005 -10.7539,-0.0651 -12.0722,-0.81485 -0.5644,-0.32095 -1.8548,-0.56691 -2.8678,-0.54658 -1.5956,0.0321 -1.8417,-0.0815 -1.8417,-0.84925 0,-0.74169 0.1045,-0.7995 0.6407,-0.35448 0.4061,0.33705 1.3512,0.45166 2.5811,0.31303 1.4175,-0.15977 2.0013,-0.0601 2.1663,0.36998 0.3706,0.96593 1.2953,0.668 1.5164,-0.48858 0.2363,-1.23583 -0.9507,-2.32154 -2.5381,-2.32154 -0.5579,0 -0.9676,-0.25844 -0.9676,-0.61036 0,-0.37769 -0.525,-0.66111 -1.3773,-0.74349 -0.9277,-0.0897 -1.425,-0.3847 -1.5234,-0.90385 -0.1347,-0.71109 0.123,-0.7495 3.3318,-0.49666 3.2145,0.2533 3.5431,0.20393 4.3406,-0.65205 0.6415,-0.68858 1.1711,-0.8644 2.0652,-0.68559 1.7921,0.35843 1.87,-0.37773 0.1825,-1.72421 -0.8229,-0.65663 -1.4963,-1.4124 -1.4963,-1.67948 0,-0.26709 -0.3024,-0.60167 -0.672,-0.7435 -1.0393,-0.39882 -1.1766,-0.31235 -0.6025,0.3794 0.3048,0.36732 0.3461,0.63728 0.097,0.63728 -0.5261,0 -0.8865,-0.87745 -0.6447,-1.56933 0.2019,-0.57749 1.3129,-0.25852 2.2179,0.63675 0.5254,0.51967 0.6808,0.50313 1.1372,-0.12097 0.5432,-0.7429 2.2904,-0.56556 2.2904,0.23254 0,0.21792 0.2189,0.39622 0.4865,0.39622 0.3426,0 0.413,-0.8764 0.2379,-2.96466 -0.1547,-1.84543 -0.083,-3.06675 0.189,-3.23506 0.257,-0.15885 0.3217,-0.88741 0.1569,-1.76613 -0.2557,-1.36275 -0.2025,-1.47529 0.5987,-1.26579 1.0313,0.26971 1.6086,-0.40629 0.9281,-1.08684 -0.5598,-0.55976 -0.6457,-3.43385 -0.092,-3.09193 0.8523,0.52678 0.7633,-1.04922 -0.1694,-2.99628 -0.5465,-1.14095 -1.0087,-1.83547 -1.0271,-1.54338 -0.018,0.29208 -0.4159,0.53106 -0.8832,0.53106 -0.4674,0 -0.8498,0.19119 -0.8498,0.42486 0,0.23367 -0.4301,0.42778 -0.9559,0.43136 -1.7085,0.0116 -1.8997,0.47015 -1.9113,4.58369 -0.01,2.17411 -0.1283,4.07002 -0.2714,4.21314 -0.4598,0.4598 -0.2781,0.9683 0.3459,0.9683 0.3334,0 0.6829,-0.33457 0.7766,-0.74349 0.1802,-0.78599 0.8789,1.34259 1.4076,4.28769 l 0.2929,1.63237 -1.3034,-0.67402 c -0.7168,-0.37071 -1.5607,-1.04139 -1.8752,-1.49042 -0.5329,-0.76088 -0.6575,-0.65792 -1.8314,1.51392 -1.0712,1.9817 -1.1643,2.38512 -0.6223,2.69672 2.0741,1.19254 2.1984,1.42527 1.5656,2.93037 -0.3578,0.8508 -0.7186,1.23244 -0.8951,0.94678 -0.1627,-0.26321 -0.7465,-0.47857 -1.2975,-0.47857 -0.5509,0 -1.081,-0.23817 -1.178,-0.52927 -0.097,-0.29109 -0.4476,-0.53958 -0.7789,-0.55219 -1.9131,-0.0728 -4.1773,-0.8922 -5.3969,-1.9531 -0.93,-0.80897 -1.864,-1.21398 -2.7996,-1.21398 -1.0853,0 -1.5138,-0.24109 -1.8879,-1.06214 -0.373,-0.81851 -0.3642,-1.06959 0.038,-1.09464 0.2871,-0.0179 0.8558,-0.0964 1.2638,-0.17458 0.408,-0.0782 0.8383,0.0141 0.9563,0.20505 0.2629,0.42539 1.9131,0.0395 1.9131,-0.44729 0,-0.54323 -0.9822,-1.0296 -1.8056,-0.89413 -0.5754,0.0947 -0.7435,-0.17749 -0.7435,-1.20403 0,-0.77604 -0.1763,-1.2174 -0.4248,-1.06377 -0.242,0.14951 -0.4249,-0.21637 -0.4249,-0.84971 0,-0.61175 -0.1434,-1.02398 -0.3186,-0.91606 -0.1753,0.10792 -0.3415,-0.45435 -0.3694,-1.24949 -0.028,-0.79514 0.1156,-1.4457 0.3187,-1.4457 0.2031,0 0.3693,0.39755 0.3693,0.88346 0,0.77836 0.1643,0.84584 1.3808,0.56727 0.7594,-0.1739 1.7153,-0.29657 2.1242,-0.27258 0.409,0.024 0.7435,-0.1357 0.7435,-0.35485 0,-0.21915 -0.2389,-0.40593 -0.531,-0.41508 -0.8498,-0.0266 2.241,-1.25793 3.1576,-1.25793 0.6415,0 0.7672,-0.19637 0.5546,-0.86631 -0.2393,-0.75391 -0.1366,-0.83159 0.7914,-0.59867 0.9511,0.23872 1.0403,0.16019 0.8251,-0.72689 -0.388,-1.59961 -3.0599,-5.03065 -3.9176,-5.03065 -0.6621,0 -0.5572,0.661 0.2053,1.29381 1.0694,0.88758 1.5029,2.01375 1.2156,3.15844 -0.1479,0.58897 -0.3974,1.07085 -0.5545,1.07085 -0.3315,0 -1.4044,-2.46111 -1.4816,-3.39883 -0.033,-0.39493 -0.5806,-0.68813 -1.4413,-0.77101 -0.7638,-0.0735 -1.2835,-0.30419 -1.1547,-0.51251 0.1287,-0.20833 0.5001,-0.27671 0.8252,-0.15196 0.7121,0.27329 1.6723,-1.3418 1.3292,-2.2359 -0.1332,-0.34706 -0.4108,-0.52679 -0.6169,-0.3994 -0.2061,0.12738 -0.3759,-0.29067 -0.3774,-0.929 0,-0.63833 0.168,-1.26886 0.3767,-1.40118 0.2087,-0.13232 0.2621,-0.82748 0.1186,-1.54479 -0.2535,-1.2676 -1.5445,-2.25074 -2.9555,-2.25074 -0.3395,0 -0.6173,-0.21246 -0.6173,-0.47214 0,-0.30909 -0.5113,-0.37621 -1.4806,-0.19437 -1.1876,0.22279 -1.434,0.15636 -1.2452,-0.33571 0.3092,-0.80575 1.6813,-1.14685 2.2651,-0.56308 0.331,0.33101 0.4607,0.26443 0.4607,-0.2365 0,-1.32466 0.7804,-1.17213 1.7116,0.33451 0.5139,0.83159 1.0174,1.429 1.1189,1.32757 0.1014,-0.10143 0.639,0.22053 1.1946,0.71547 0.6752,0.60138 0.8774,1.06005 0.6095,1.38277 -0.4281,0.51585 -0.093,1.86516 0.4636,1.86516 0.1837,0 0.4524,-0.30846 0.597,-0.68548 0.1668,-0.43464 0.572,-0.6047 1.1072,-0.46474 1.044,0.27302 1.4398,-0.28746 0.9065,-1.2839 -0.2214,-0.41376 -0.5412,-1.67715 -0.7107,-2.80755 -0.3027,-2.01875 -0.2921,-2.04524 0.5953,-1.491 0.7768,0.48506 0.9036,0.96736 0.9036,3.43604 0,2.31778 0.1278,2.87178 0.6623,2.87178 0.3643,0 0.5362,0.20422 0.3819,0.45382 -0.1543,0.2496 -0.5336,0.35667 -0.8431,0.23792 -0.3951,-0.15161 -0.5269,0.11833 -0.4429,0.90661 0.066,0.61738 0.3688,1.20554 0.6733,1.30704 0.3656,0.12186 0.463,-0.0516 0.2868,-0.51072 -0.2935,-0.76492 0.7428,-0.9997 1.1935,-0.2704 0.3678,0.59505 1.1823,0.52891 2.1437,-0.17405 0.8076,-0.59055 0.8072,-0.61217 -0.025,-1.54906 -0.6016,-0.67731 -0.6915,-1.0035 -0.313,-1.13592 0.2921,-0.10216 0.5311,-0.38146 0.5311,-0.62066 0,-0.2392 -0.2868,-0.32486 -0.6373,-0.19036 -0.7076,0.27155 -0.8818,-0.37717 -0.2124,-0.79091 0.2337,-0.14442 0.4249,-0.93834 0.4249,-1.76427 0,-1.14438 -0.2022,-1.55456 -0.8497,-1.72389 -0.4674,-0.12221 -0.8498,-0.49268 -0.8498,-0.82327 0,-0.33058 -0.2747,-0.70648 -0.6104,-0.83532 -0.3358,-0.12883 -0.5065,-0.5052 -0.3794,-0.83637 0.1271,-0.33117 0.019,-0.60212 -0.2393,-0.60212 -0.2586,0 -0.4703,0.17096 -0.4703,0.37991 0,0.20895 -0.4647,0.35234 -1.0327,0.31864 -1.4965,-0.0888 -1.796,-1.88674 -0.3738,-2.2437 1.5043,-0.37756 1.1261,-1.87844 -0.7177,-2.8481 -1.4298,-0.75188 -1.4389,-0.77122 -0.236,-0.50222 1.0337,0.23118 3.0412,1.03065 4.5907,1.82828 0.1753,0.0902 0.3187,-0.52105 0.3187,-1.35837 0,-1.11505 0.1826,-1.52239 0.6827,-1.52239 0.3803,0 0.5902,-0.24098 0.4739,-0.54409 -0.1148,-0.29924 0.2385,-0.75517 0.7852,-1.01316 0.6687,-0.31558 1.0416,-0.32614 1.1396,-0.0323 0.098,0.29381 0.4305,0.28429 1.0161,-0.0291 0.6393,-0.34217 1.0006,-0.33578 1.3605,0.024 0.2832,0.28324 0.4899,0.31069 0.4899,0.0651 0,-0.23367 -0.2294,-0.65428 -0.5098,-0.93468 -0.3411,-0.34108 -0.3561,-0.50982 -0.045,-0.50982 0.5142,0 1.0252,0.98107 1.2724,2.4429 0.1725,1.02013 -0.2616,1.24146 -0.9955,0.50755 -0.2466,-0.2466 -0.935,-0.32625 -1.5297,-0.17699 -0.8439,0.2118 -1.1184,0.58999 -1.2507,1.72293 -0.093,0.79836 -0.064,1.44863 0.064,1.44505 0.6501,-0.0181 1.3684,-0.80629 1.1124,-1.22055 -0.7195,-1.16417 0.8556,-0.30879 2.2595,1.22706 1.8246,1.99605 2.4939,2.13924 2.4824,0.53107 0,-0.6426 -0.092,-0.9309 -0.1936,-0.64068 -0.1379,0.39291 -0.4025,0.4114 -1.0359,0.0724 -0.8077,-0.43225 -0.8137,-0.49612 -0.1195,-1.2632 0.5668,-0.6264 0.6204,-0.94136 0.2382,-1.40184 -0.3962,-0.47735 -0.2855,-0.63357 0.5638,-0.79593 0.5812,-0.11111 1.1112,-0.0508 1.1778,0.13393 0.1472,0.4086 3.3074,-0.53566 3.3074,-0.98825 10e-5,-0.1765 0.2677,-0.3209 0.5949,-0.3209 0.3978,0 0.5948,-0.49806 0.5948,-1.50375 0,-1.07589 -0.1391,-1.39289 -0.4886,-1.11413 -0.2687,0.21429 -0.9034,0.5166 -1.4103,0.6718 -0.721,0.22074 -0.9857,0.0702 -1.216,-0.6915 -0.3506,-1.15944 -2.2799,-3.31037 -2.9692,-3.31037 -0.2679,0 -0.487,-0.59592 -0.487,-1.32426 0,-0.79424 -0.2834,-1.48286 -0.7081,-1.72053 -0.7892,-0.44166 -0.9242,-1.92729 -0.2638,-2.90317 0.3285,-0.48553 0.3745,-0.38437 0.1931,0.42486 -0.1894,0.84491 -0.018,1.16257 0.8368,1.55323 0.5912,0.2701 1.0749,0.32784 1.0749,0.12831 0,-0.19953 0.568,-0.16479 1.2622,0.0772 1.1813,0.41182 1.4968,1.11392 0.7498,1.66889 -0.3645,0.27083 0.5383,2.19234 1.7782,3.78444 l 0.8189,1.05171 0.2846,-1.13377 c 0.1565,-0.62358 0.1597,-1.33583 0.01,-1.58278 -0.1526,-0.24695 -0.064,-0.449 0.1976,-0.449 0.2612,0 0.352,-0.19896 0.2017,-0.44213 -0.1503,-0.24318 -0.6395,-0.32589 -1.0872,-0.1838 -0.4477,0.14209 -0.8286,0.10207 -0.8464,-0.0889 -0.018,-0.191 -0.095,-0.66863 -0.1706,-1.06139 -0.076,-0.39277 0.1344,-0.81863 0.4672,-0.94636 0.4986,-0.19133 0.5178,-0.0656 0.1087,0.71412 -0.4749,0.90529 -0.4615,0.9155 0.3088,0.23529 0.7049,-0.62235 0.9082,-0.6356 1.63,-0.10621 1.0183,0.7468 2.6284,0.78789 2.891,0.0738 0.2924,-0.79524 -0.097,-1.5932 -0.7771,-1.5932 -0.331,0 -0.6019,-0.19791 -0.6019,-0.4398 0,-0.28964 0.2576,-0.30194 0.7545,-0.036 0.4892,0.26179 1.036,0.2462 1.5552,-0.0443 0.6642,-0.37168 0.7529,-0.32931 0.5201,0.24845 -0.9285,2.30457 -0.9265,2.23094 -0.042,1.55359 0.7753,-0.59338 0.7737,-0.57229 -0.027,0.36325 -0.9695,1.13331 -0.9367,1.33113 0.3466,2.09006 0.922,0.54523 0.9221,0.54721 0.021,0.30551 -1.2508,-0.33547 -3.129,1.91518 -3.129,3.74949 0,1.35491 1.2954,2.70618 2.111,2.2021 0.2073,-0.12815 0.5001,0.15493 0.6506,0.62905 0.1505,0.47413 0.4639,0.74444 0.6965,0.60071 0.2325,-0.14374 0.5307,0.15107 0.6625,0.65514 0.1442,0.55152 0.4712,0.82763 0.8211,0.69336 0.7957,-0.30535 1.9099,0.16895 1.5948,0.67886 -0.141,0.22812 -0.7135,0.30003 -1.2721,0.15981 -0.9394,-0.23576 -1.0198,-0.12649 -1.0689,1.45257 -0.07,2.23923 -0.102,2.42908 -0.478,2.80505 -0.1752,0.17525 -0.3186,-0.93547 -0.3186,-2.46827 0,-2.11581 -0.1574,-2.84728 -0.6534,-3.03762 -0.3718,-0.14267 -0.7576,0.0208 -0.8952,0.3794 -0.1329,0.34656 -0.5304,0.63012 -0.8831,0.63012 -0.4321,0 -0.5689,0.27711 -0.4193,0.84928 0.1221,0.46711 0.049,0.95635 -0.1629,1.08721 -0.6681,0.41293 -0.417,1.46089 0.3585,1.49588 0.409,0.0184 0.5153,0.12639 0.2363,0.23987 -0.8463,0.34429 -0.1485,1.35127 0.77,1.11109 1.1042,-0.28875 2.4809,1.1867 2.5566,2.74006 0.049,1.00191 0.087,1.03766 0.242,0.23019 0.1031,-0.53517 0.4984,-0.95879 0.8981,-0.96243 0.5532,-0.005 0.5863,-0.0874 0.1472,-0.36573 -0.4562,-0.28922 -0.4355,-0.40954 0.1062,-0.61744 0.3701,-0.14202 0.6729,-0.73089 0.6729,-1.30861 0,-0.57772 0.1581,-1.14805 0.3512,-1.2674 0.6229,-0.385 2.198,0.24676 2.198,0.88162 0,0.33861 0.2003,0.98997 0.4451,1.44747 0.3988,0.74511 0.5127,0.76434 1.0925,0.18449 0.9529,-0.95289 1.2992,-0.80198 1.599,0.69681 0.2665,1.33254 -0.5775,3.32927 -1.4072,3.32927 -0.2064,0 -0.2753,0.38249 -0.1531,0.84997 0.2041,0.78032 0.3482,0.72768 1.7587,-0.64234 1.3459,-1.30721 1.4715,-1.59636 1.0125,-2.33119 -0.2881,-0.46139 -0.5239,-1.14127 -0.5239,-1.51086 0,-0.56038 0.2117,-0.52125 1.2746,0.23559 0.701,0.49917 1.2746,1.15555 1.2746,1.45863 0,0.30308 0.4089,1.07091 0.9087,1.7063 0.698,0.88735 0.992,1.02378 1.268,0.58836 0.2467,-0.38913 0.3614,-0.20053 0.3659,0.60147 0,0.77988 0.2302,1.16834 0.6792,1.16834 1.0137,0 0.4727,1.00417 -0.6887,1.27834 -1.1211,0.26466 -1.8092,1.99472 -1.1391,2.86399 0.294,0.38128 0.1851,0.5329 -0.3861,0.53757 -0.6101,0.005 -0.6608,0.0919 -0.2174,0.37278 0.318,0.20145 0.9393,0.27182 1.3808,0.15637 1.1083,-0.28983 1.012,0.44287 -0.1258,0.9568 -1.3556,0.61233 -1.4752,1.48152 -0.2038,1.48152 1.6397,0 2.4068,-0.43518 2.4068,-1.36547 0,-0.58667 0.1973,-0.76988 0.6373,-0.59182 0.3505,0.14183 0.8994,0.36446 1.2197,0.49472 0.3204,0.13026 0.7015,-0.0734 0.8471,-0.45263 0.2129,-0.55489 0.079,-0.63063 -0.6854,-0.38799 -0.8006,0.2541 -0.8687,0.20365 -0.4333,-0.32098 0.5453,-0.65701 0.5515,-3.3215 0.01,-3.32294 -0.616,-0.002 -0.3092,-0.65205 0.5654,-1.19823 0.7743,-0.48355 1.0007,-0.42621 1.8238,0.462 0.7398,0.79826 0.909,1.4139 0.795,2.89279 l -0.1448,1.87871 0.6514,-1.27456 c 0.3582,-0.70101 1.1414,-2.42167 1.7403,-3.82369 1.0195,-2.38652 1.0727,-2.44072 0.8341,-0.8497 -0.3335,2.22348 -0.3919,2.46058 -0.7471,3.02846 -0.4982,0.7966 2.1871,1.11673 2.9519,0.35191 0.7461,-0.74608 1.6671,-0.22931 2.2782,1.27827 0.2746,0.67756 0.3562,0.71045 0.3773,0.15211 0.015,-0.39178 0.3615,-0.77906 0.7704,-0.86062 0.6675,-0.13312 0.6496,-0.22954 -0.1751,-0.94333 -0.5052,-0.43728 -0.8279,-1.0314 -0.7171,-1.32027 0.1109,-0.28887 -0.097,-1.24002 -0.4621,-2.11368 -1.0999,-2.63229 -0.7164,-3.14551 0.4744,-0.63499 l 1.1083,2.3367 0.3872,-1.27456 c 0.6554,-2.15795 0.8442,-4.78684 0.3651,-5.08294 -0.2473,-0.15284 -0.4496,-0.50032 -0.4496,-0.7722 0,-0.27187 0.2976,-0.0694 0.6614,0.44993 0.8717,1.24463 1.2687,1.19162 2.1415,-0.28597 0.5498,-0.93064 0.8514,-1.11375 1.2387,-0.75195 0.3948,0.36882 0.2583,0.79617 -0.5965,1.86748 -0.6096,0.76407 -1.3474,1.38922 -1.6395,1.38923 -0.6311,2e-5 -0.7163,1.53477 -0.1062,1.91186 0.2337,0.14441 0.4249,0.0378 0.4249,-0.23691 0,-0.30634 0.3635,-0.4044 0.9402,-0.2536 0.5667,0.14819 1.2387,-0.0242 1.6915,-0.43393 0.6117,-0.55364 0.8709,-0.58043 1.3964,-0.14431 0.4423,0.36705 0.6453,0.38549 0.6453,0.0586 0,-0.57976 0.4254,-0.59895 1.2745,-0.0575 0.541,0.34496 0.4929,0.50812 -0.3186,1.07972 -0.6547,0.46112 -0.9539,1.10095 -0.9494,2.03003 0,0.74618 0.1474,1.13525 0.3196,0.86461 0.1722,-0.27064 1.0296,-0.62649 1.9053,-0.79077 1.5637,-0.29335 2.0715,-0.82327 1.0995,-1.14729 -0.3623,-0.12075 -0.3702,-0.38327 -0.03,-0.99132 0.4358,-0.7786 0.4895,-0.75698 0.9176,0.36892 0.2501,0.65781 0.4475,1.32695 0.4386,1.48699 -0.021,0.37213 -3.2673,2.62768 -3.7823,2.62768 -0.2135,0 -0.9803,0.71694 -1.7039,1.5932 l -1.3156,1.5932 4.3649,0.34883 c 2.4007,0.19186 4.8907,0.34294 5.5332,0.33575 0.747,-0.008 1.1684,0.2106 1.1684,0.60709 0,0.3411 0.1912,0.62018 0.4248,0.62018 0.2337,0 0.4249,-0.38237 0.4249,-0.84971 0,-1.05965 1.5651,-2.6823 2.2054,-2.28655 0.2718,0.16801 0.3571,0.10282 0.1994,-0.15241 -0.1516,-0.24529 0.01,-0.55561 0.3592,-0.68959 0.8239,-0.31615 0.8221,-1.11999 0,-1.11999 -0.3505,0 -0.6373,-0.17525 -0.6373,-0.38945 0,-0.6606 1.0239,-0.7717 1.6198,-0.17576 0.3109,0.31087 1.2207,0.56521 2.0219,0.56521 0.8011,0 1.4566,0.16994 1.4566,0.37765 0,0.2077 0.3345,0.35109 0.7433,0.31864 0.8697,-0.069 1.2845,1.69441 0.5672,2.41166 -0.3312,0.3312 -0.4608,0.21448 -0.4608,-0.41494 0,-0.70643 -0.2066,-0.83627 -1.0684,-0.67152 -0.5876,0.11233 -1.1782,0.38188 -1.3124,0.59899 -0.1427,0.23085 -0.4929,0.18819 -0.8434,-0.10275 -0.431,-0.35768 -0.5995,-0.36348 -0.5995,-0.0206 0,0.26228 0.1689,0.47688 0.3753,0.47688 0.4547,0 1.1141,1.83526 1.2594,3.50504 0.036,0.40892 0.2672,0.74349 0.5147,0.74349 0.2474,0 0.3317,-0.19118 0.1873,-0.42485 -0.1444,-0.23367 0.02,-0.42485 0.3644,-0.42485 0.3448,0 0.7179,0.23898 0.8291,0.53106 0.1254,0.32958 0.7156,-0.0745 1.5557,-1.065 1.9581,-2.30899 2.9026,-2.72932 3.3764,-1.50271 l 0.3765,0.97451 0.4239,-1.06213 c 0.3874,-0.9708 0.4515,-0.99337 0.7459,-0.26236 0.1857,0.4613 0.1004,1.15462 -0.2016,1.63825 -0.4417,0.70727 -0.3827,0.98853 0.3772,1.79737 0.4954,0.5274 0.8607,1.12848 0.8117,1.33573 -0.049,0.20726 0.059,0.90506 0.2405,1.55069 0.2098,0.74735 0.1447,1.39665 -0.1793,1.78702 -0.7133,0.85945 -0.2686,1.35717 1.5108,1.69099 1.3586,0.25486 1.5021,0.4026 1.274,1.3114 -0.1916,0.76332 -0.1074,0.96674 0.3306,0.79865 0.3233,-0.12404 0.698,0.0617 0.8327,0.41274 0.1347,0.35104 0.9241,0.76567 1.7542,0.9214 0.8301,0.15573 1.5093,0.43261 1.5093,0.61527 0,0.61359 -1.159,0.78445 -2.8043,0.41338 -0.898,-0.20254 -1.7282,-0.27283 -1.8448,-0.15621 -0.3112,0.31122 0.9165,1.00151 1.7947,1.00906 0.4163,0.003 0.8608,0.2775 0.9879,0.60873 0.1984,0.51702 0.4312,0.51863 1.6452,0.0114 0.7777,-0.32496 2.0593,-0.56658 2.8479,-0.53693 0.7886,0.0297 1.8394,-0.16317 2.3351,-0.42847 0.7292,-0.39026 0.9503,-0.35485 1.1576,0.18546 0.141,0.36732 0.1316,0.86965 -0.021,1.11632 -0.1797,0.29072 0.083,0.35818 0.7457,0.19176 0.5625,-0.14119 1.308,-0.0764 1.6565,0.14396 0.3486,0.22037 0.4426,0.41704 0.2089,0.43704 -0.2336,0.02 -0.043,0.20067 0.4249,0.4015 0.7266,0.31222 0.742,0.36945 0.1062,0.39499 -0.4089,0.0164 -0.7435,0.31664 -0.7435,0.66715 0,0.35404 -0.3776,0.63728 -0.8497,0.63728 -0.4673,0 -0.8497,-0.28102 -0.8497,-0.62449 0,-0.46898 -0.394,-0.35714 -1.5821,0.44919 -2.186,1.48341 -2.243,1.61627 -0.5422,1.26336 0.8179,-0.1697 3.4924,-0.46427 5.9434,-0.6546 4.3233,-0.33572 4.4859,-0.31654 5.4449,0.64244 0.9296,0.92959 0.9425,1.01217 0.217,1.38587 -0.4243,0.21856 -1.0104,0.31173 -1.3024,0.20703 -0.7719,-0.27681 -1.1948,1.16034 -0.4869,1.65495 0.4663,0.32583 0.4772,0.46112 0.051,0.63343 -0.3422,0.13837 0.5531,1.33168 2.4296,3.23815 1.6344,1.66047 2.8677,3.123 2.7406,3.25005 -0.1271,0.12706 -0.4136,-0.0952 -0.6367,-0.49386 -0.7346,-1.31263 -5.2209,-4.43253 -7.6988,-5.35396 -1.338,-0.49753 -3.7046,-1.10779 -5.2591,-1.35614 -2.6958,-0.43064 -2.9699,-0.39182 -5.9287,0.83993 -1.7062,0.71029 -3.5826,1.29145 -4.1697,1.29145 -0.6168,0 -1.3428,0.39282 -1.7192,0.93029 -0.7847,1.1203 -1.4921,0.65115 -0.7675,-0.50904 0.4222,-0.67609 0.4014,-0.77348 -0.1223,-0.57251 -0.3471,0.13319 -0.6311,0.40924 -0.6311,0.61344 0,0.20419 -0.8351,0.2568 -1.8558,0.1169 -3.0896,-0.42348 -3.1276,1.57821 -0.041,2.15728 0.8782,0.16474 1.4719,0.52541 1.4719,0.89414 0,0.74921 2.1868,0.84179 3.4841,0.14751 0.7169,-0.38363 0.7705,-0.54794 0.2907,-0.88978 -0.4615,-0.32882 -0.4313,-0.36894 0.1398,-0.18595 0.4845,0.15522 1.025,-0.18354 1.615,-1.01208 1.618,-2.27223 6.9654,-3.18682 11.1713,-1.91069 4.9302,1.49586 10.0902,5.83411 12.1491,10.21433 1.25,2.65914 2.2914,7.61991 2.0271,9.65565 -0.197,1.51729 0.2502,2.19051 0.7055,1.06213 0.139,-0.34448 0.2261,-0.29321 0.2479,0.14592 0.032,0.65385 -1.2668,4.80553 -2.0482,6.54553 -0.2099,0.46734 -0.6274,1.51885 -0.9278,2.33669 -1.295,3.52569 -6.2558,8.93443 -12.0728,13.1628 -2.3411,1.70174 -8.005,6.9141 -10.8572,9.99174 -1.657,1.788 -3.8119,5.04451 -5.4756,8.27491 -1.8462,3.58482 -3.8295,6.7299 -3.8397,6.08898 0,-0.27829 0.1831,-0.62415 0.4168,-0.76857 0.2337,-0.14442 0.4248,-0.46588 0.4248,-0.71437 0,-0.29597 -0.2083,-0.27891 -0.6039,0.0495 -1.0067,0.83544 -2.3062,-0.31366 -2.5984,-2.29767 -0.1386,-0.94095 -0.219,-4.96095 -0.1787,-8.93333 0.04,-3.97239 -0.1093,-8.46522 -0.3324,-9.98407 l -0.4055,-2.76155 -0.065,2.86777 c -0.038,1.67179 0.1124,2.86776 0.3601,2.86776 0.2336,0 0.4219,0.52576 0.4183,1.16835 0,0.79988 -0.1196,0.98999 -0.365,0.60278 -0.5714,-0.90128 -0.9463,2.50032 -0.6395,5.80144 0.149,1.60349 0.1295,5.5563 -0.043,8.78402 -0.4502,8.40483 0.4118,7.86009 -12.4366,7.86009 -7.4278,0 -10.2697,0.13886 -10.6513,0.52043 -0.4107,0.41067 -0.6962,0.41067 -1.3538,0 -0.8353,-0.52166 -11.0413,-0.78054 -11.0413,-0.28007 0,0.46238 0.981,2.09899 1.4347,2.39348 0.2517,0.16344 0.7978,-0.0107 1.2135,-0.38684 0.4157,-0.37619 0.8583,-0.58149 0.9836,-0.45623 0.4405,0.4405 -2.3992,2.42713 -3.8614,2.70145 -1.8636,0.34961 -2.7444,-0.33162 -2.7444,-2.12257 0,-1.70848 -0.6611,-2.36965 -2.3695,-2.36965 -1.3425,0 -1.3487,0.01 -1.1406,1.85648 0.1387,1.23019 0.029,1.96783 -0.3248,2.18656 -0.6264,0.38714 -5.3819,0.63813 -6.4807,0.34204 z m 3.9428,-3.9602 c 0,-0.23367 -0.2025,-0.42486 -0.4499,-0.42486 -0.2475,0 -0.3318,0.19119 -0.1874,0.42486 0.1444,0.23366 0.3469,0.42485 0.4499,0.42485 0.1031,0 0.1874,-0.19119 0.1874,-0.42485 z m 50.5365,-9.23611 c 0.7757,-2.14518 3.6749,-6.93078 5.6378,-9.30613 0.881,-1.06612 1.504,-2.09665 1.3844,-2.29007 -0.1195,-0.19342 0.01,-0.49002 0.2801,-0.6591 0.3383,-0.20909 0.3851,-0.11655 0.1463,0.28928 -0.1931,0.32819 0.06,0.23659 0.5617,-0.20356 0.502,-0.44015 0.8103,-0.96591 0.6852,-1.16835 -0.1251,-0.20244 -0.047,-0.36807 0.1729,-0.36807 0.2202,0 0.5069,-0.40721 0.637,-0.90489 0.1556,-0.59515 0.4588,-0.81964 0.8857,-0.65583 0.3569,0.13697 0.7802,0.0366 0.9407,-0.2229 0.1766,-0.28578 0.098,-0.35236 -0.1989,-0.16879 -0.2697,0.16673 -0.4905,0.11669 -0.4905,-0.11118 0,-0.22787 0.5736,-0.6682 1.2746,-0.97849 0.701,-0.3103 1.2746,-0.68639 1.2746,-0.83577 0,-0.14937 0.38,-0.37098 0.8446,-0.49245 0.4645,-0.12148 1.0407,-0.73676 1.2804,-1.36731 0.2957,-0.77772 0.6461,-1.06578 1.0893,-0.89568 0.3594,0.13791 0.5449,0.075 0.4121,-0.13976 -0.1327,-0.21478 0.7655,-1.21631 1.996,-2.22562 5.9169,-4.85309 11.2335,-11.41488 10.724,-13.23537 -0.2039,-0.7284 -0.1645,-0.7875 0.1885,-0.28322 0.5024,0.7175 0.438,0.98841 0.6561,-2.76155 l 0.1236,-2.12427 -1.2408,2.54913 c -0.6824,1.40202 -1.1565,2.87716 -1.0535,3.27809 0.103,0.40094 0.05,0.68771 -0.1188,0.63728 -0.1683,-0.0505 -1.3367,1.15101 -2.5965,2.66986 -2.7552,3.32167 -2.6425,3.20845 -5.2949,5.31944 -1.1684,0.92986 -2.2199,1.78624 -2.3367,1.90308 -0.9858,0.9858 -4.2442,3.38154 -4.228,3.10863 0.011,-0.1909 1.088,-1.20741 2.3925,-2.25892 1.3045,-1.05152 3.0637,-2.65291 3.9093,-3.55865 0.8456,-0.90574 2.4391,-2.57303 3.5413,-3.70509 2.6937,-2.76692 3.9077,-4.70055 5.1803,-8.25086 1.1682,-3.25899 1.485,-7.3229 0.7218,-9.2608 -0.2591,-0.6578 -0.471,-1.59215 -0.471,-2.07633 0,-0.95095 -3.0289,-5.69785 -4.9669,-7.78421 -0.6564,-0.70669 -1.9814,-1.63276 -2.9445,-2.05791 l -1.7509,-0.77301 -1.8455,1.16502 c -1.6733,1.05632 -1.7632,1.19546 -0.9635,1.4913 0.9977,0.36905 1.512,1.37595 1.1649,2.2805 -0.1478,0.38515 0.247,0.85706 1.0754,1.28547 1.4376,0.74337 1.6012,1.15831 0.7389,1.87394 -0.6802,0.56451 -1.1293,0.2132 -1.1293,-0.88343 0,-0.43864 -0.239,-0.74673 -0.5311,-0.68464 -0.9764,0.20752 -4.7645,-1.04005 -6.0608,-1.99609 -1.1755,-0.86692 -1.4832,-0.9083 -3.7285,-0.50132 -2.3582,0.42744 -3.0682,1.2201 -1.3279,1.4824 2.0975,0.3161 2.7264,0.57526 2.7264,1.12346 0,0.326 0.9612,1.18418 2.136,1.90707 1.1749,0.72287 2.3071,1.74298 2.5161,2.26692 0.209,0.52393 0.8729,1.47001 1.4752,2.1024 0.6024,0.63239 1.0952,1.31971 1.0952,1.52736 0,0.20765 0.3824,0.72359 0.8497,1.14652 0.4673,0.42294 0.8497,1.01484 0.8497,1.31534 0,1.07913 -0.9121,1.07806 -1.9133,-0.002 -0.5611,-0.60537 -1.2316,-1.10068 -1.4901,-1.10068 -0.2586,0 -1.2222,-0.60443 -2.1415,-1.34318 -1.6268,-1.30735 -1.6942,-1.3226 -2.5242,-0.57145 -1.1301,1.0227 -1.0822,1.9136 0.1031,1.91896 0.7111,0.003 1.1385,0.43912 1.6689,1.70181 0.4079,0.97122 1.1283,1.85113 1.6837,2.05658 l 0.9707,0.35909 -0.8956,0.47929 c -0.9883,0.52894 -1.1874,0.37153 -2.2769,-1.80026 -0.3409,-0.6794 -0.9065,-1.31224 -1.257,-1.40631 -0.3505,-0.0941 -1.3877,-1.21106 -2.3048,-2.4822 -1.113,-1.54273 -1.9659,-2.31127 -2.5649,-2.31127 -0.6111,0 -0.9192,-0.28871 -0.9656,-0.90485 -0.164,-2.1765 -3.4811,-3.85704 -3.7624,-1.90613 -0.1273,0.88274 1.4225,3.23328 2.1364,3.24022 0.4281,0.004 3.3512,3.84944 5.5822,7.34321 1.0915,1.70939 1.2663,2.19574 0.6527,1.81652 -0.2072,-0.12806 -0.5723,0.004 -0.8114,0.29356 -0.3043,0.36859 -0.1266,1.46986 0.5929,3.67365 1.025,3.13947 1.1043,4.33335 0.1722,2.59171 -0.2706,-0.50549 -0.7477,-0.82091 -1.0603,-0.70095 -0.8271,0.31741 -3.4178,-1.12104 -4.5734,-2.53939 -2.2131,-2.71621 -4.9895,-6.94069 -4.9895,-7.59186 0,-0.38085 -0.1695,-0.58772 -0.3766,-0.45972 -0.2071,0.128 -0.5147,5.34906 -0.6836,11.60234 -0.169,6.25329 -0.3691,12.89909 -0.4447,14.76845 -0.5177,12.79312 0.014,23.25344 0.8444,16.60801 0.1623,-1.29911 0.4729,-2.4719 0.6902,-2.60621 0.2173,-0.13431 0.3951,-0.59383 0.3951,-1.02116 0,-1.48949 5.2328,-8.28169 7.9633,-10.33652 0.9877,-0.74325 0.9382,-0.62149 -0.3159,0.77761 -0.8178,0.91238 -1.5891,1.75843 -1.7138,1.88012 -0.8926,0.87066 -3.4018,4.28754 -3.9688,5.40461 -0.3796,0.74782 -0.6902,2.11056 -0.6902,3.02831 0,0.91774 -0.2868,2.35497 -0.6373,3.19386 -0.7138,1.70847 -0.7998,2.40222 -0.2978,2.40222 0.1868,0 0.5981,-0.71493 0.914,-1.58874 z m 0.4459,-5.51095 c 0,-0.244 0.3346,-0.70603 0.7435,-1.02673 0.6878,-0.53935 0.6968,-0.51937 0.1203,0.26662 -0.3428,0.46734 -0.6774,0.92937 -0.7435,1.02673 -0.066,0.0974 -0.1203,-0.0226 -0.1203,-0.26662 z m 7.8424,-25.64233 c -0.154,-0.24921 -0.178,-0.55513 -0.053,-0.67982 0.3043,-0.30433 1.1329,0.2319 1.1329,0.73316 0,0.54295 -0.7335,0.50671 -1.0796,-0.0534 z m 9.7891,-14.84163 c -0.1444,-0.23367 -0.06,-0.42485 0.1873,-0.42485 0.2475,0 0.45,0.19118 0.45,0.42485 0,0.23367 -0.084,0.42486 -0.1874,0.42486 -0.103,0 -0.3055,-0.19119 -0.4499,-0.42486 z m -117.8969,32.71375 c 0,-0.23367 -0.2664,-0.42486 -0.5919,-0.42486 -0.3255,0 -0.7123,-0.31414 -0.8597,-0.69808 -0.1473,-0.38395 -0.3896,-0.57631 -0.5385,-0.42747 -0.3045,0.30448 1.0752,1.97526 1.631,1.97526 0.1975,0 0.3591,-0.19118 0.3591,-0.42485 z m 95.6263,-10.6795 c -0.202,-0.89907 -0.2182,-1.54251 -0.036,-1.42988 0.4913,0.30365 0.8312,-2.82202 0.8546,-7.85875 0.012,-2.45353 0.1783,-6.08603 0.3708,-8.07223 0.1926,-1.98619 0.2094,-3.88232 0.038,-4.21363 -0.3525,-0.67914 -0.7171,0.87489 -0.7891,3.36393 -0.072,2.47562 -0.4928,4.81556 -1.1088,6.16038 -0.321,0.70101 -0.6855,1.60913 -0.8099,2.01805 -0.484,1.5911 -1.0285,0.60789 -1.2941,-2.33669 -0.4149,-4.59962 -0.6223,-5.40399 -1.3239,-5.13477 -0.8003,0.30715 -0.7826,-0.69469 0.033,-1.85911 0.4076,-0.58194 0.4847,-1.01346 0.2113,-1.18246 -0.2811,-0.17373 -0.2886,-0.53133 -0.022,-1.03029 0.225,-0.42031 0.2961,-1.46022 0.158,-2.31091 -0.2339,-1.4413 -0.1769,-1.54672 0.8356,-1.54672 0.6949,0 1.1402,0.26798 1.2353,0.7435 0.082,0.40892 0.1436,-0.40362 0.1374,-1.80563 -0.01,-1.57028 0.2616,-3.07934 0.6995,-3.9299 l 0.711,-1.38078 -1.5607,-0.0757 c -0.8583,-0.0417 -1.943,-0.0611 -2.4103,-0.0431 -0.4674,0.0179 -3.6219,0.14442 -7.0101,0.2811 -3.3882,0.1367 -7.8811,0.25596 -9.9841,0.26505 -3.2121,0.0139 -3.9936,0.15594 -4.8858,0.88817 -0.7131,0.5852 -0.8876,0.94278 -0.5311,1.08809 0.2921,0.11905 0.5311,0.57688 0.5311,1.01741 0,0.55947 0.2048,0.72237 0.6794,0.54028 0.5894,-0.2262 0.6063,-0.14377 0.1273,0.62313 -0.3035,0.48611 -0.7373,0.76924 -0.9639,0.62918 -0.2363,-0.14602 -0.2986,0.0411 -0.146,0.43874 0.1464,0.38135 0.054,0.82462 -0.2058,0.98504 -0.3028,0.18714 -0.3511,0.0961 -0.1348,-0.25393 0.2246,-0.36345 0.1402,-0.48064 -0.253,-0.35101 -0.3246,0.10703 -0.6454,0.562 -0.7129,1.01104 -0.1405,0.93388 -1.8723,1.87549 -3.467,1.88507 -0.8126,0.005 -0.9316,0.10274 -0.4758,0.39119 0.4449,0.28151 0.16,0.46063 -1.0621,0.66787 -3.0877,0.52358 -3.2522,0.62188 -2.9636,1.77163 0.1766,0.70347 0.1118,0.9627 -0.1934,0.77406 -0.3043,-0.18807 -0.371,0.0668 -0.1979,0.75653 0.1796,0.7154 0.061,1.11695 -0.38,1.28616 -0.3526,0.1353 -0.8612,0.65727 -1.1302,1.15992 -0.44,0.82209 -0.4001,0.88564 0.397,0.63264 0.959,-0.30437 1.1718,0.17014 0.4155,0.92648 -0.3444,0.34438 -0.333,0.88794 0.042,2.02528 0.5759,1.7447 0.3427,2.30797 -0.6235,1.50616 -0.5349,-0.44393 -0.6475,-0.41752 -0.6475,0.15189 0,0.8007 -0.8337,0.95024 -0.8822,0.15823 -0.018,-0.29209 -0.097,-0.86488 -0.1746,-1.27288 -0.078,-0.40799 0.03,-0.84826 0.2407,-0.97838 0.2105,-0.13011 0.1457,-0.49317 -0.1441,-0.8068 -0.2897,-0.31362 -0.6702,-0.48342 -0.8454,-0.37732 -0.1753,0.1061 -0.3187,-0.0939 -0.3187,-0.44437 0,-0.35051 0.1912,-0.75544 0.4249,-0.89986 0.7368,-0.45539 0.4634,-0.95571 -0.6373,-1.16611 -1.1493,-0.21971 -1.1125,-0.32198 -1.2599,3.50281 -0.041,1.05151 -0.1334,2.58099 -0.2063,3.39883 l -0.1326,1.48699 -0.3131,-1.48699 -0.313,-1.48699 -0.056,1.777 c -0.046,1.4586 0.1038,1.82771 0.8357,2.06 0.4904,0.15565 1.2552,0.64649 1.6994,1.09076 0.7938,0.79379 0.7935,0.80777 -0.017,0.80777 -0.4536,0 -0.9428,0.19118 -1.0872,0.42485 -0.1445,0.23367 -0.012,0.42778 0.2935,0.43136 0.4041,0.005 0.382,0.11909 -0.081,0.41835 -0.3505,0.22651 -0.7807,0.41477 -0.9559,0.41835 -0.4858,0.01 -0.3797,-1.88678 0.1343,-2.40076 0.3206,-0.32067 0.1915,-0.52129 -0.4424,-0.68703 -0.7304,-0.19103 -0.8479,-0.0852 -0.6383,0.57515 0.2249,0.70872 0.095,0.77693 -1.0447,0.54897 -1.7073,-0.34146 -1.7243,0.49456 -0.03,1.45887 0.6995,0.39805 1.2731,0.86712 1.2746,1.04237 0,0.17525 1.0654,0.31864 2.3644,0.31864 1.299,0 2.256,-0.17115 2.1267,-0.38034 -0.1293,-0.20918 0.072,-0.49812 0.4471,-0.6421 0.4874,-0.18702 0.6118,-0.0784 0.4358,0.38034 -0.2163,0.56363 1.2317,0.6421 11.8486,0.6421 8.1037,0 12.095,-0.14606 12.095,-0.44262 0,-0.24344 0.4059,-0.86479 0.9021,-1.38077 l 0.9021,-0.93816 -0.4969,0.96471 c -0.2733,0.53058 -0.3812,1.15193 -0.2398,1.38077 0.1414,0.22884 1.8892,0.41607 3.884,0.41607 4.3631,0 5.7497,0.6415 6.5359,3.02379 0.2944,0.89179 0.6978,1.5209 0.8967,1.39802 0.1988,-0.12288 0.3824,0.69599 0.408,1.81971 l 0.047,2.04313 0.3666,-1.86707 c 0.2058,-1.04818 0.2055,-2.58404 -7e-4,-3.50175 z m -33.7039,-3.62205 c 0.2921,-0.11786 0.77,-0.11786 1.0621,0 0.2921,0.11786 0.053,0.21429 -0.531,0.21429 -0.5842,0 -0.8232,-0.0964 -0.5311,-0.21429 z m 23.62,-3.11746 c -0.3664,-1.37244 -0.3424,-1.69941 0.1246,-1.69941 0.3914,0 0.5783,0.54915 0.5783,1.69941 0,0.93468 -0.056,1.69942 -0.1247,1.69942 -0.069,0 -0.3288,-0.76474 -0.5782,-1.69942 z m 7.7838,0.56647 c -0.1558,-0.15578 -0.2833,-0.48079 -0.2833,-0.72225 0,-0.26621 0.1979,-0.24113 0.5028,0.0637 0.2765,0.27651 0.4039,0.60152 0.2832,0.72225 -0.1207,0.12073 -0.347,0.092 -0.5027,-0.0637 z m 1.8745,-1.66401 c 0.02,-0.49493 0.1211,-0.5956 0.2567,-0.25668 0.1228,0.30669 0.1077,0.67313 -0.034,0.8143 -0.1412,0.14118 -0.2416,-0.10975 -0.2231,-0.55762 z m -40.3946,-1.02673 c 0,-0.23367 0.1912,-0.42485 0.4248,-0.42485 0.2337,0 0.4249,0.19118 0.4249,0.42485 0,0.23367 -0.1912,0.42486 -0.4249,0.42486 -0.2336,0 -0.4248,-0.19119 -0.4248,-0.42486 z m 24.6415,-0.57003 c 0,-0.79628 -0.3469,-1.09883 -1.7379,-1.51557 -1.5485,-0.46395 -1.7997,-0.43656 -2.3049,0.25139 -0.5313,0.72334 -0.5953,0.69834 -1.0132,-0.39627 -0.2453,-0.64259 -0.7436,-1.16835 -1.1072,-1.16835 -0.9465,0 -1.2857,-1.22263 -0.5065,-1.82604 0.3626,-0.28086 1.1548,-2.15705 1.7605,-4.16931 1.3008,-4.32238 2.1248,-5.23877 4.7235,-5.25301 1.5866,-0.009 1.8362,-0.12362 1.6375,-0.75376 -0.3226,-1.02286 0.5376,-0.9396 1.0973,0.10621 0.2501,0.46734 0.3047,0.85043 0.1212,0.8513 -0.1835,6.6e-4 0.2917,0.3828 1.0558,0.84873 2.2056,1.34475 2.4161,2.28338 1.4024,6.25358 -0.484,1.89562 -0.88,4.24015 -0.88,5.21006 0,1.85792 -0.03,1.87026 -2.387,0.9866 -0.2614,-0.098 -0.5781,0.21504 -0.7037,0.69559 -0.3124,1.19437 -1.1578,1.1059 -1.1578,-0.12115 z m 1.487,-11.32588 c -0.1444,-0.23367 -0.4538,-0.42485 -0.6874,-0.42485 -0.2337,0 -0.3067,0.19118 -0.1623,0.42485 0.1444,0.23367 0.4537,0.42486 0.6874,0.42486 0.2337,0 0.3067,-0.19119 0.1623,-0.42486 z m 8.7095,12.15379 c 0,-0.0918 0.2868,-0.27702 0.6373,-0.41152 0.3505,-0.1345 0.6373,-0.0593 0.6373,0.16697 0,0.22634 -0.2868,0.41153 -0.6373,0.41153 -0.3505,0 -0.6373,-0.0751 -0.6373,-0.16698 z m -33.9883,-4.50642 c 0,-0.23367 0.2025,-0.42485 0.4499,-0.42485 0.2475,0 0.3318,0.19118 0.1874,0.42485 -0.1444,0.23367 -0.3469,0.42486 -0.4499,0.42486 -0.1031,0 -0.1874,-0.19119 -0.1874,-0.42486 z m 29.8178,-1.16471 c 0.075,-0.65026 0.432,-1.22107 0.8082,-1.2923 0.4787,-0.0906 0.6427,0.15431 0.5665,0.84608 -0.059,0.53551 -0.1233,1.11704 -0.1428,1.29229 -0.019,0.17525 -0.3348,0.31864 -0.7009,0.31864 -0.4749,0 -0.627,-0.33348 -0.531,-1.16471 z m -23.3337,-2.95233 c 0.395,-0.395 0.8375,-0.59891 0.9833,-0.45312 0.4181,0.41815 -0.2238,1.17133 -0.9983,1.17133 -0.6485,0 -0.6473,-0.0559 0.015,-0.71821 z m 27.2918,0.29336 c -0.3465,-0.5606 0.1615,-1.35616 0.6666,-1.04399 0.5161,0.31892 0.5127,1.46884 0,1.46884 -0.2198,0 -0.5179,-0.19118 -0.6623,-0.42485 z m -2.3367,-0.66236 c 0,-0.36429 0.1943,-0.54226 0.4318,-0.39549 0.2374,0.14677 0.3218,0.44482 0.1873,0.66235 -0.3642,0.58929 -0.6191,0.47941 -0.6191,-0.26686 z m -26.1285,-0.6122 c -0.1444,-0.23367 0.1311,-0.42486 0.6122,-0.42486 0.4811,0 0.8748,0.19119 0.8748,0.42486 0,0.23367 -0.2755,0.42485 -0.6122,0.42485 -0.3368,0 -0.7304,-0.19118 -0.8748,-0.42485 z m 29.1853,-2.76155 c 0.01,-0.70101 0.1039,-0.93635 0.2116,-0.52299 0.1077,0.41337 0.1006,0.98693 -0.016,1.27457 -0.1164,0.28764 -0.2045,-0.0506 -0.1959,-0.75158 z m -3.4817,-1.29964 c 0,-0.3643 0.1943,-0.54226 0.4318,-0.3955 0.2375,0.14678 0.3218,0.44483 0.1874,0.66236 -0.3642,0.58929 -0.6192,0.47941 -0.6192,-0.26686 z m -15.7992,-1.75213 c 0.3067,-0.12273 0.6731,-0.10764 0.8143,0.0335 0.1412,0.14117 -0.1098,0.24159 -0.5576,0.22314 -0.495,-0.0204 -0.5956,-0.12106 -0.2567,-0.25668 z m 8.3893,-0.80043 c -0.4536,-0.33482 -1.4394,-0.60877 -2.1907,-0.60877 -1.1569,0 -1.332,-0.13011 -1.1438,-0.84971 0.1222,-0.46734 0.024,-0.8497 -0.2175,-0.8497 -0.2418,0 -0.742,-0.11605 -1.1117,-0.25788 -0.5149,-0.19761 -0.672,0.0223 -0.672,0.94074 0,1.11798 -0.048,1.15106 -0.707,0.49163 -0.5414,-0.54142 -0.5935,-0.84371 -0.2225,-1.29074 0.3635,-0.43801 0.3597,-0.70849 -0.015,-1.08345 -0.383,-0.38306 -0.3369,-0.49972 0.1975,-0.49972 0.3834,0 0.8108,0.18388 0.9497,0.40862 0.1612,0.26086 0.6498,0.25757 1.3513,-0.009 1.3043,-0.4959 5.6032,-0.42456 5.9263,0.0984 0.1244,0.20115 0.3984,0.25919 0.6091,0.129 0.2107,-0.1302 0.9527,0.0579 1.649,0.41792 1.6376,0.84684 1.8444,0.82533 1.5319,-0.15931 -0.3291,-1.03669 0.5284,-1.59335 1.2778,-0.82951 0.3906,0.3982 0.4747,1.03976 0.2669,2.03656 -0.3524,1.69066 -1.2942,2.22458 -1.6337,0.92623 -0.1585,-0.60594 -0.5736,-0.89446 -1.2872,-0.89446 -1.2267,0 -3.4357,1.20229 -3.612,1.96593 -0.092,0.39969 -0.3197,0.37983 -0.9461,-0.0826 z m -1.7244,-2.73304 c 0.1444,-0.23367 0.06,-0.42485 -0.1874,-0.42485 -0.2474,0 -0.4499,0.19118 -0.4499,0.42485 0,0.23367 0.084,0.42486 0.1873,0.42486 0.1031,0 0.3056,-0.19119 0.45,-0.42486 z m 5.7557,2.58681 c -0.2788,-0.52088 -0.2949,-0.93007 -0.043,-1.08593 0.2226,-0.13756 0.606,0.12601 0.852,0.58571 0.2788,0.52088 0.2949,0.93007 0.043,1.08593 -0.2226,0.13756 -0.606,-0.12601 -0.852,-0.58571 z m 3.8035,-0.0126 c 0,-0.21988 0.189,-0.51659 0.42,-0.65935 0.2408,-0.14884 0.312,0.0217 0.1669,0.39978 -0.2824,0.73603 -0.5869,0.87069 -0.5869,0.25957 z m 0.6415,-3.85569 c 0.1468,-0.23748 0.4449,-0.32179 0.6624,-0.18735 0.5893,0.3642 0.4794,0.61913 -0.2669,0.61913 -0.3643,0 -0.5422,-0.1943 -0.3955,-0.43178 z m -100.3443,20.74836 c -1.8069,-1.85034 -2.2621,-1.99683 -2.2621,-0.72785 0,0.57494 0.2042,0.81679 0.5709,0.67607 0.4045,-0.15521 0.5163,0.0671 0.3833,0.76244 -0.1374,0.71906 0.051,1.05718 0.7036,1.26441 0.9347,0.29665 1.2348,1.07532 0.4144,1.07532 -0.3221,0 -0.299,0.21435 0.071,0.66034 0.479,0.57722 0.6207,0.48737 1.1257,-0.71368 0.56,-1.33183 0.5291,-1.42389 -1.007,-2.99705 z m 2.4113,3.47524 c 0,-0.23367 -0.2025,-0.42485 -0.45,-0.42485 -0.2474,0 -0.3317,0.19118 -0.1873,0.42485 0.1444,0.23367 0.3469,0.42485 0.4499,0.42485 0.103,0 0.1874,-0.19118 0.1874,-0.42485 z m 42.0605,-1.52239 c 0,-0.36998 -0.227,-0.59701 -0.5045,-0.50451 -0.7878,0.26258 -0.9185,1.17719 -0.1682,1.17719 0.37,0 0.6727,-0.30271 0.6727,-0.67268 z m 3.1765,-0.20823 c -0.1876,-0.59097 -0.034,-1.06016 0.4652,-1.42555 0.7634,-0.5582 0.5625,-2.22743 -0.2105,-1.74964 -0.2192,0.13545 -0.5312,0.0315 -0.6934,-0.23087 -0.2167,-0.35053 -0.3726,-0.35135 -0.5879,-0.003 -0.362,0.58569 0.4577,4.29007 0.9493,4.29007 0.1963,0 0.2311,-0.39642 0.077,-0.88092 z m -4.0038,-2.07922 c -0.2499,-0.15444 -0.2524,-0.48598 -0.01,-0.87476 0.5671,-0.89667 0.5008,-1.26335 -0.2283,-1.26335 -0.3505,0 -0.6373,0.28677 -0.6373,0.63728 0,0.3505 -0.2485,0.63728 -0.5523,0.63728 -0.3038,0 -0.7774,0.22509 -1.0525,0.5002 -0.3837,0.38371 -0.2304,0.66955 0.6585,1.22729 1.0527,0.66055 1.2073,0.66567 1.6898,0.0559 0.3158,-0.39925 0.368,-0.77193 0.1286,-0.91986 z m 20.3706,0.83586 c 0,-0.23367 -0.1799,-0.42485 -0.3998,-0.42485 -0.2199,0 -0.518,0.19118 -0.6624,0.42485 -0.1444,0.23367 0.035,0.42486 0.3998,0.42486 0.3643,0 0.6624,-0.19119 0.6624,-0.42486 z m -68.0802,-6.05416 c -0.2708,-0.82451 -2.4456,-0.94406 -2.4456,-0.13444 0,0.46021 0.4041,0.6655 1.31,0.6655 0.8577,0 1.2498,-0.18333 1.1356,-0.53106 z m 111.0938,-3.16709 c -0.1718,-2.23429 -0.2916,-2.54715 -0.7859,-2.0529 -0.4942,0.49424 -0.4766,0.91288 0.1158,2.74696 0.3844,1.19013 0.738,2.11394 0.7858,2.05291 0.048,-0.061 0,-1.29716 -0.1157,-2.74697 z m -53.2101,1.99874 c 0,-0.23367 -0.2146,-0.42486 -0.4769,-0.42486 -0.3435,0 -0.3485,-0.15472 -0.018,-0.55318 0.5435,-0.65489 0.1943,-2.26571 -0.7237,-3.33782 -0.4979,-0.58155 -0.7449,-0.63951 -1.0327,-0.24231 -0.2522,0.34816 -0.2938,0.26198 -0.1247,-0.25875 0.1643,-0.50616 -0.083,-1.07446 -0.7034,-1.61566 l -0.9569,-0.83485 1.0621,0.23096 c 0.5842,0.12703 0.8231,0.1212 0.5311,-0.0129 -0.2921,-0.13414 -0.5311,-0.52877 -0.5311,-0.87693 0,-0.37787 -0.2997,-0.57143 -0.7435,-0.4802 -0.4089,0.084 -0.9399,-0.10375 -1.18,-0.41735 -0.3366,-0.43981 -0.4569,-0.32192 -0.5263,0.5156 -0.049,0.59718 0.081,1.08578 0.2905,1.08578 0.2092,0 0.2834,0.37069 0.1649,0.82375 -0.1185,0.45307 0.012,2.17373 0.2906,3.82369 l 0.506,2.99993 h 2.0859 c 1.1472,0 2.0859,-0.19118 2.0859,-0.42485 z m -26.0507,-6.45247 c -0.1357,-0.33892 -0.2363,-0.23825 -0.2567,0.25668 -0.018,0.44787 0.082,0.6988 0.2231,0.55763 0.1412,-0.14118 0.1563,-0.50762 0.034,-0.81431 z m 16.279,0.0797 c 0,-0.23367 -0.1911,-0.42485 -0.4248,-0.42485 -0.2337,0 -0.4249,0.19118 -0.4249,0.42485 0,0.23367 0.1912,0.42485 0.4249,0.42485 0.2337,0 0.4248,-0.19118 0.4248,-0.42485 z m 21.6521,-0.61867 c 0.6837,-0.82374 0.2239,-1.48057 -0.8413,-1.202 -1.0112,0.26445 -1.42,0.80526 -1.0551,1.39582 0.3804,0.61546 1.3031,0.52117 1.8964,-0.19382 z m 40.4167,-2.23826 c -0.3818,-0.65581 -0.4408,-0.60629 -0.452,0.37927 -0.01,0.62348 0.1304,1.48381 0.3057,1.91184 0.2661,0.64997 0.3406,0.58745 0.452,-0.37927 0.073,-0.63663 -0.064,-1.49696 -0.3057,-1.91184 z m -52.722,1.36994 c 0.5741,-0.69175 0.4368,-0.77822 -0.6025,-0.3794 -0.3696,0.14184 -0.672,0.42861 -0.672,0.63728 0,0.58767 0.6884,0.44839 1.2745,-0.25788 z m 21.5525,0.3806 c -0.1412,-0.14117 -0.5076,-0.15627 -0.8143,-0.0335 -0.3389,0.13563 -0.2383,0.2363 0.2567,0.25668 0.4479,0.0185 0.6988,-0.082 0.5576,-0.22314 z m -9.1759,-5.06903 c 0.1045,0.10451 0.2205,-0.5185 0.2578,-1.38446 0.037,-0.86596 0.4599,-2.79429 0.9392,-4.28516 0.4793,-1.49088 0.8714,-3.06815 0.8714,-3.50504 0,-0.4369 0.1912,-0.79436 0.4249,-0.79436 0.2337,0 0.4249,-0.28678 0.4249,-0.63729 0,-0.3505 -0.153,-0.63728 -0.3399,-0.63728 -0.5999,0 -1.3596,0.99609 -1.3596,1.7827 0,0.41967 -0.4149,1.9587 -0.922,3.42007 -0.5071,1.46136 -0.9704,3.13499 -1.0295,3.71916 -0.059,0.58418 -0.2508,1.5401 -0.4262,2.12427 -0.2745,0.91463 -0.2293,0.9889 0.3251,0.53476 0.3541,-0.29006 0.7293,-0.44187 0.8339,-0.33737 z m -23.694,-0.40981 c -0.1345,-0.35051 -0.3197,-0.63729 -0.4115,-0.63729 -0.092,0 -0.167,0.28678 -0.167,0.63729 0,0.3505 0.1852,0.63728 0.4115,0.63728 0.2264,0 0.3015,-0.28678 0.167,-0.63728 z m 9.618,0.26444 c 0,-0.20505 -0.2868,-0.61083 -0.6373,-0.90173 -0.5168,-0.42893 -0.6373,-0.412 -0.6373,0.0896 0,0.34017 0.1275,0.74595 0.2833,0.90173 0.4035,0.40348 0.9913,0.35034 0.9913,-0.0896 z m 29.7398,-0.47687 c 0,-0.23367 -0.084,-0.42486 -0.1874,-0.42486 -0.103,0 -0.3055,0.19119 -0.4499,0.42486 -0.1444,0.23367 -0.06,0.42485 0.1873,0.42485 0.2475,0 0.45,-0.19118 0.45,-0.42485 z m -10.6214,-0.42486 c 0,-0.23367 -0.2024,-0.42485 -0.4499,-0.42485 -0.2475,0 -0.3318,0.19118 -0.1874,0.42485 0.1445,0.23367 0.3469,0.42486 0.45,0.42486 0.103,0 0.1873,-0.19119 0.1873,-0.42486 z m -93.8927,-1.88676 c 0,-0.44842 -0.8153,-0.63682 -1.0578,-0.24444 -0.1468,0.23748 0.031,0.43179 0.3955,0.43179 0.3643,0 0.6623,-0.0843 0.6623,-0.18735 z m 91.7685,-0.66236 c 0,-0.23367 -0.2025,-0.42485 -0.45,-0.42485 -0.2474,0 -0.3317,0.19118 -0.1873,0.42485 0.1444,0.23367 0.3469,0.42486 0.4499,0.42486 0.103,0 0.1874,-0.19119 0.1874,-0.42486 z m 1.6994,-0.63728 c 0,-0.3505 -0.075,-0.63728 -0.167,-0.63728 -0.092,0 -0.277,0.28678 -0.4115,0.63728 -0.1345,0.35051 -0.059,0.63728 0.167,0.63728 0.2263,0 0.4115,-0.28677 0.4115,-0.63728 z m -11.8959,-0.21243 c 0,-0.23367 -0.3824,-0.42485 -0.8497,-0.42485 -0.4674,0 -0.8498,0.19118 -0.8498,0.42485 0,0.23367 0.3824,0.42486 0.8498,0.42486 0.4673,0 0.8497,-0.19119 0.8497,-0.42486 z m 1.5843,-0.25668 c -0.1412,-0.14117 -0.5076,-0.15627 -0.8143,-0.0335 -0.3389,0.13562 -0.2382,0.23629 0.2567,0.25667 0.4479,0.0185 0.6988,-0.082 0.5576,-0.22314 z m 4.4355,-1.10611 c 0.39,0.0167 0.8148,-0.24497 0.9439,-0.58134 0.192,-0.50039 -0.2074,-0.57869 -2.1962,-0.43068 -1.337,0.0995 -2.502,0.19658 -2.5891,0.21573 -0.087,0.0192 0.09,0.33389 0.3934,0.69941 0.3831,0.46166 0.8855,0.5733 1.6452,0.36561 0.6015,-0.16444 1.4128,-0.28537 1.8028,-0.26873 z m 20.2361,0.003 c 0.2804,-0.2804 0.5098,-0.73745 0.5098,-1.01565 0,-0.62458 -2.5797,-0.96006 -4.6331,-0.6025 -1.4025,0.24422 -1.4462,0.2932 -0.5344,0.60003 0.5461,0.18375 1.662,0.20856 2.4799,0.0552 1.3617,-0.25545 1.4635,-0.20516 1.209,0.59693 -0.3078,0.96979 0.1806,1.15432 0.9688,0.36606 z m 23.0042,-0.28744 c 2.4867,-0.55873 3.4438,-1.54924 1.085,-1.12291 -1.8354,0.33172 -15.8546,0.31873 -16.3949,-0.0152 -0.1804,-0.11151 -0.4293,-0.039 -0.553,0.16123 -0.2748,0.44462 -2.8143,0.39084 -3.5618,-0.0754 -0.3108,-0.19391 -0.4918,-0.15617 -0.4248,0.0886 0.064,0.23455 -0.2657,0.71499 -0.733,1.06765 -0.7636,0.57626 0.1433,0.62423 8.9539,0.47366 5.392,-0.0922 10.6249,-0.35207 11.6286,-0.5776 z m 4.7883,-0.55518 c -0.6489,-0.64897 -1.1278,-0.17011 -0.7678,0.76789 0.2125,0.55383 0.3967,0.60871 0.7747,0.23075 0.378,-0.37797 0.3763,-0.61547 -0.01,-0.99864 z m -40.4531,-0.34703 c -1.3642,-1.02903 -1.7065,-0.68673 -0.4249,0.42485 0.5423,0.47031 1.0959,0.74522 1.2302,0.61092 0.1343,-0.1343 -0.2281,-0.60039 -0.8053,-1.03577 z m 4.5551,0.50695 c 0.6198,-0.39378 0.3016,-2.67602 -0.4387,-3.14673 -0.8624,-0.54831 -1.0319,-0.37539 -0.8178,0.83415 0.1695,0.95787 0.1053,1.07268 -0.3564,0.63728 -0.7928,-0.74779 -1.2655,-0.65979 -0.9448,0.17591 0.2034,0.53018 0.1204,0.61603 -0.332,0.3433 -0.5199,-0.31341 -0.5205,-0.26165 0,0.37449 0.3295,0.406 0.8553,0.63988 1.1684,0.51974 0.313,-0.12013 0.5692,-0.0332 0.5692,0.19309 0,0.49282 0.447,0.5194 1.1563,0.0688 z m -26.0005,-3.3374 c -0.1653,-1.32308 -0.4619,-2.80476 -0.6593,-3.29262 l -0.3587,-0.88702 -0.027,0.88507 c -0.035,1.14564 0.8783,5.70017 1.1429,5.70017 0.1115,0 0.067,-1.08252 -0.098,-2.4056 z m -15.092,1.55589 c 0,-0.23367 -0.1912,-0.42485 -0.4249,-0.42485 -0.2337,0 -0.4248,0.19118 -0.4248,0.42485 0,0.23367 0.1911,0.42485 0.4248,0.42485 0.2337,0 0.4249,-0.19118 0.4249,-0.42485 z m 67.0587,-1.08212 c 0.5918,-1.29899 0.6053,-1.467 0.1177,-1.467 -0.2064,0 -0.4933,0.33457 -0.6375,0.74349 -0.1443,0.40892 -0.3737,0.98247 -0.5099,1.27456 -0.1361,0.29209 -0.071,0.53107 0.1446,0.53107 0.2156,0 0.6139,-0.48696 0.8851,-1.08212 z m -55.1628,-0.40487 c 0,-0.3505 -0.1912,-0.63728 -0.4249,-0.63728 -0.2337,0 -0.4248,0.28678 -0.4248,0.63728 0,0.35051 0.1911,0.63728 0.4248,0.63728 0.2337,0 0.4249,-0.28677 0.4249,-0.63728 z m 41.5041,-0.40462 c -0.969,-0.96908 -1.4043,-0.80066 -0.5034,0.1948 0.4242,0.46877 0.859,0.76465 0.9661,0.65751 0.1072,-0.10714 -0.101,-0.49068 -0.4627,-0.85231 z m 38.5808,-0.65751 c 0.1577,-0.2552 -0.3836,-0.42226 -1.3557,-0.41835 -1.2013,0.005 -1.4541,0.11263 -0.981,0.41835 0.8309,0.53695 2.0048,0.53695 2.3367,0 z m -62.4131,-1.34033 0.8093,-0.91547 -1.1683,0.7519 c -1.2047,0.77531 -1.4326,1.07904 -0.8094,1.07904 0.1975,0 0.7232,-0.41196 1.1684,-0.91547 z m 21.4024,-0.80054 c -0.3437,-0.21738 -0.9117,-0.39535 -1.2623,-0.39549 -0.3512,-1.3e-4 -0.1605,0.25099 0.4249,0.55951 1.1589,0.61074 1.8488,0.47562 0.8374,-0.16402 z m 48.4456,-0.80804 c 0,-0.59202 -0.781,-0.96737 -1.3199,-0.63432 -0.3278,0.20259 -0.2956,0.40124 0.1062,0.65585 0.7584,0.48055 1.2137,0.47247 1.2137,-0.0215 z m -45.4593,-0.95598 c 0,0.27834 0.2884,0.50606 0.6409,0.50606 0.5345,0 0.5528,-0.14101 0.1102,-0.84971 -0.935,-1.49715 -2.7073,-0.82167 -2.1072,0.8031 0.1719,0.46523 0.339,0.42544 0.7871,-0.18741 0.313,-0.42795 0.569,-0.55037 0.569,-0.27204 z m 31.2752,-1.93685 c -0.041,-1.35835 -0.2587,-1.70061 -1.4745,-2.3218 -1.2474,-0.63734 -1.5033,-0.65124 -2.0436,-0.11099 -0.3397,0.33969 -0.6539,1.13439 -0.6983,1.76602 -0.07,0.99442 0.1473,1.21855 1.6188,1.67153 2.5439,0.78311 2.6507,0.74181 2.5976,-1.00476 z m -45.7202,0.31864 c 0,-0.23367 -0.2981,-0.42486 -0.6624,-0.42486 -0.3643,0 -0.5442,0.19119 -0.3998,0.42486 0.1444,0.23367 0.4425,0.42485 0.6624,0.42485 0.2199,0 0.3998,-0.19118 0.3998,-0.42485 z m 60.7541,-0.63728 c 0,-0.35051 -0.1912,-0.63728 -0.4249,-0.63728 -0.2337,0 -0.4249,0.28677 -0.4249,0.63728 0,0.3505 0.1912,0.63728 0.4249,0.63728 0.2337,0 0.4249,-0.28678 0.4249,-0.63728 z m -73.1048,-1.16835 c -0.024,-1.1244 -0.092,-1.22301 -0.366,-0.53107 -0.1849,0.46734 -0.2466,1.08869 -0.1371,1.38078 0.3416,0.91137 0.5342,0.58619 0.5031,-0.84971 z m 2.1542,0.31864 c 0.5057,0 0.6092,-0.48255 0.5015,-2.3367 -0.075,-1.28518 -0.2725,-3.00584 -0.4398,-3.82368 -0.2662,-1.30128 -0.4815,-1.50412 -1.724,-1.62415 -1.134,-0.10955 -1.7108,0.14489 -2.8655,1.26404 -1.2121,1.17482 -1.4042,1.60882 -1.1888,2.68628 0.656,3.28142 1.0325,3.50697 2.3224,1.3913 0.6729,-1.10367 0.8449,-1.21025 0.857,-0.53107 0.014,0.81068 0.042,0.81439 0.5981,0.0808 0.8081,-1.06595 1.073,-0.40261 0.6854,1.71689 -0.3176,1.73681 -0.066,2.84927 0.3907,1.72947 0.1241,-0.30425 0.5125,-0.55317 0.863,-0.55317 z m -3.5743,-5.44355 c -0.5963,-0.43599 -0.6675,-0.67084 -0.2768,-0.91236 0.614,-0.37943 1.4703,0.3277 1.2386,1.02277 -0.1105,0.33153 -0.4034,0.2979 -0.9618,-0.11041 z m 27.5882,4.4619 c -0.5086,-0.50859 -2.7168,-0.43308 -2.5176,0.0861 0.3361,0.8758 2.0394,1.4119 2.4406,0.76818 0.1967,-0.31549 0.2313,-0.69991 0.077,-0.85426 z m -42.2386,-0.63126 c -0.342,-0.34193 -0.4654,-0.12955 -0.456,0.78444 0.011,1.09872 0.069,1.15656 0.4689,0.46888 0.3268,-0.56219 0.3231,-0.91728 -0.013,-1.25332 z m 34.5834,1.39748 c 0.1454,-0.23532 -0.082,-0.53605 -0.506,-0.66829 -0.4237,-0.13225 -1.125,-0.43178 -1.5584,-0.66564 -0.6111,-0.32981 -0.7154,-0.29903 -0.4649,0.13722 0.9411,1.63859 1.9587,2.12002 2.5293,1.19671 z m -7.0072,-0.85549 c 0.5048,-0.94331 0.1884,-1.86016 -0.496,-1.43718 -0.2378,0.14701 -0.3405,0.61893 -0.2281,1.04869 0.1123,0.42976 -0.014,0.87105 -0.2817,0.98065 -0.3441,0.14111 -0.3353,0.20904 0.03,0.23279 0.2838,0.0185 0.7228,-0.35278 0.9755,-0.82495 z m -24.7119,-4.7291 c -0.011,-1.40488 -0.148,-1.97674 -0.3828,-1.59675 -0.3014,0.48767 -0.4626,0.494 -0.9147,0.0359 -0.4491,-0.4552 -0.399,-0.66659 0.276,-1.1648 0.8621,-0.63631 2.1276,-0.84089 1.7941,-0.29004 -0.1061,0.17525 0.053,0.54594 0.3541,0.82376 0.4232,0.39084 0.7134,0.38336 1.283,-0.0331 1.0792,-0.78915 1.3074,-8.60035 0.2667,-9.13059 -1.2247,-0.624 -3.4605,-0.90834 -3.4605,-0.4401 0,0.24162 -0.2212,0.30256 -0.4917,0.13542 -0.3589,-0.22185 -0.419,0.22602 -0.2226,1.65895 0.2187,1.59613 0.132,2.04269 -0.4643,2.39017 -0.4032,0.23502 -0.5071,0.43313 -0.2308,0.44024 0.2764,0.007 0.6238,0.39528 0.7722,0.86262 0.5599,1.76428 1.0116,0.74684 0.8487,-1.91184 l -0.1691,-2.76155 h 1.2283 c 0.6756,0 1.3108,0.14339 1.4116,0.31864 0.1008,0.17525 0.297,1.94371 0.4359,3.9299 0.2123,3.03459 0.1701,3.433 -0.2644,2.49495 -0.2844,-0.61397 -0.7083,-1.18752 -0.9419,-1.27456 -0.2337,-0.087 -0.3724,-0.31585 -0.3081,-0.50848 0.064,-0.19262 -0.079,-0.22913 -0.3187,-0.0811 -0.2394,0.14799 -0.4354,0.56502 -0.4354,0.92674 0,0.38317 -0.2436,0.56418 -0.5836,0.43369 -0.5411,-0.20764 -1.1563,0.63183 -1.6673,2.27513 -0.112,0.36029 0.062,1.01818 0.3864,1.46197 0.3245,0.4438 0.59,1.11449 0.59,1.49044 0,0.56655 0.7493,1.70318 1.1228,1.70318 0.057,0 0.096,-0.98494 0.086,-2.18876 z m 64.5283,1.50723 c -0.1411,-0.14118 -0.5076,-0.15627 -0.8143,-0.0335 -0.3389,0.13562 -0.2382,0.2363 0.2567,0.25668 0.4479,0.0184 0.6988,-0.082 0.5576,-0.22314 z m -39.3963,-1.01788 c 0,-0.23367 -0.1912,-0.42486 -0.4248,-0.42486 -0.2337,0 -0.4249,0.19119 -0.4249,0.42486 0,0.23367 0.1912,0.42485 0.4249,0.42485 0.2336,0 0.4248,-0.19118 0.4248,-0.42485 z m 2.8979,-0.95592 c 0.2051,-0.75943 0.3401,-1.42657 0.2998,-1.48254 -0.04,-0.056 -0.5851,0.13522 -1.2107,0.42485 -0.6566,0.30392 -1.0477,0.76589 -0.925,1.09244 0.1169,0.31119 0.2126,0.74136 0.2126,0.95592 0,1.01933 1.2935,0.2299 1.6233,-0.99067 z m -6.1637,0.26457 c 0.5858,-0.33049 0.6999,-0.71479 0.4764,-1.60531 -0.1617,-0.64394 -0.5561,-1.2714 -0.8765,-1.39437 -0.7287,-0.27961 -0.7655,-0.98225 -0.052,-0.9827 0.5238,-3.3e-4 2.5577,-3.85023 2.2151,-4.19281 -0.293,-0.29294 -1.4716,0.85894 -1.4716,1.43816 0,0.2969 -0.2868,0.64985 -0.6373,0.78436 -0.4748,0.18222 -0.6373,-0.0649 -0.6373,-0.96962 0,-1.37448 -1.0639,-2.81196 -2.357,-3.1846 -1.3387,-0.38575 -2.187,2.24265 -1.4473,4.48399 0.2978,0.90247 0.7021,1.64086 0.8984,1.64086 0.5437,0 0.4254,2.03171 -0.1386,2.38031 -0.3337,0.20623 -0.1184,0.6068 0.6594,1.227 1.2278,0.97902 2.1205,1.07835 3.3678,0.37473 z m -4.3145,-7.38088 c 0,-0.58417 0.096,-0.82315 0.2143,-0.53106 0.1179,0.29208 0.1179,0.77005 0,1.06213 -0.1178,0.29209 -0.2143,0.0531 -0.2143,-0.53107 z m 6.3057,7.88488 c 0,-0.10305 -0.1911,-0.30552 -0.4248,-0.44993 -0.2337,-0.14442 -0.4249,-0.0601 -0.4249,0.18735 0,0.24746 0.1912,0.44993 0.4249,0.44993 0.2337,0 0.4248,-0.0843 0.4248,-0.18735 z m -98.566,-0.42486 c 0,-0.10304 -0.1912,-0.30551 -0.4249,-0.44993 -0.2337,-0.14441 -0.4248,-0.0601 -0.4248,0.18736 0,0.24746 0.1911,0.44992 0.4248,0.44992 0.2337,0 0.4249,-0.0843 0.4249,-0.18735 z m 49.8488,-1.10013 c 0.273,-0.007 0.1603,-0.20863 -0.2505,-0.44784 -0.7978,-0.4646 -1.5899,-0.19992 -1.5899,0.53129 0,0.24488 0.3025,0.32919 0.6721,0.18735 0.3696,-0.14183 0.8953,-0.26369 1.1683,-0.2708 z m 17.9596,-2.84599 c -0.4319,-0.43187 -0.7882,0.21833 -0.4339,0.79166 0.2677,0.43311 0.3678,0.43344 0.5117,0.002 0.098,-0.29519 0.063,-0.6522 -0.078,-0.79338 z m -13.244,-0.25051 c -0.2754,-0.71779 -1.7763,-1.38699 -2.1878,-0.97548 -0.1327,0.13267 0.1207,0.37469 0.5631,0.53782 0.4423,0.16313 0.9652,0.56434 1.1619,0.89157 0.4619,0.76866 0.8035,0.43375 0.4628,-0.45391 z m 3.6275,-0.50184 c 0,-0.23366 -0.1853,-0.13807 -0.4118,0.21243 -0.2265,0.35051 -0.4119,0.82847 -0.4119,1.06214 0,0.23367 0.1854,0.13807 0.4119,-0.21243 0.2265,-0.3505 0.4118,-0.82847 0.4118,-1.06214 z m 11.4841,-1.29963 c 0,-0.3643 -0.1943,-0.54227 -0.4318,-0.3955 -0.2375,0.14677 -0.3218,0.44483 -0.1873,0.66236 0.3642,0.58929 0.6191,0.47941 0.6191,-0.26686 z m 66.2772,-0.13879 c 0,-0.44063 -0.2486,-1.28024 -0.5524,-1.86581 l -0.5523,-1.06466 -0.7152,0.88147 c -0.8343,1.02815 -0.6197,1.51648 0.3226,0.7344 0.4038,-0.33511 0.6476,-0.36734 0.6476,-0.0856 0,0.24849 -0.1893,0.56878 -0.4206,0.71176 -0.2652,0.16388 -0.226,0.48122 0.1062,0.85862 0.7347,0.83492 1.1641,0.77216 1.1641,-0.17016 z m -59.6142,-0.55308 c -0.1356,-0.33892 -0.2363,-0.23825 -0.2567,0.25669 -0.018,0.44786 0.082,0.69879 0.2232,0.55762 0.1412,-0.14118 0.1562,-0.50762 0.034,-0.81431 z m -20.0641,0.10902 c 0.1345,-0.21753 0.05,-0.51559 -0.1873,-0.66236 -0.2375,-0.14677 -0.4318,0.0312 -0.4318,0.3955 0,0.74627 0.2549,0.85615 0.6191,0.26686 z m 19.349,-1.32899 c 0,-0.7148 -0.1655,-1.19733 -0.3678,-1.07228 -0.3423,0.21152 -0.1556,2.37191 0.2049,2.37191 0.09,0 0.1629,-0.58483 0.1629,-1.29963 z m 48.4853,0.36559 c -0.3976,-1.075 -1.3265,-1.54647 -1.3265,-0.67332 0,0.63394 0.8151,1.60736 1.3459,1.60736 0.1794,0 0.1707,-0.42032 -0.019,-0.93404 z m -54.4332,-0.0761 c 0,-0.0882 -0.3346,-0.4228 -0.7435,-0.7435 -0.6738,-0.52846 -0.6889,-0.51343 -0.1604,0.16041 0.555,0.7077 0.9039,0.93276 0.9039,0.58309 z m 43.9724,-0.6893 c 0.1444,-0.23367 -0.1424,-0.42486 -0.6373,-0.42486 -0.4949,0 -0.7817,0.19119 -0.6373,0.42486 0.1444,0.23367 0.4312,0.42485 0.6373,0.42485 0.2061,0 0.4928,-0.19118 0.6373,-0.42485 z m 3.7671,-1.05623 c -0.1604,-0.41809 0.167,-0.79948 0.9693,-1.129 2.0272,-0.83265 0.03,-0.95848 -2.4005,-0.15124 -2.5081,0.83308 -3.1631,1.53309 -1.1249,1.20234 0.8473,-0.1375 1.5628,-0.0395 1.734,0.2376 0.4333,0.7011 1.1026,0.5711 0.8221,-0.1597 z m -11.4145,-0.21833 c 0.1444,-0.23367 0.06,-0.42486 -0.1874,-0.42486 -0.2474,0 -0.4499,0.19119 -0.4499,0.42486 0,0.23367 0.084,0.42485 0.1874,0.42485 0.103,0 0.3055,-0.19118 0.4499,-0.42485 z m 3.2441,-0.76778 -1.0045,-0.67489 1.6417,-0.52306 1.6418,-0.52306 -2.3367,0.23504 c -2.6886,0.27043 -3.3366,0.66757 -2.579,1.58042 0.3539,0.42644 0.9382,0.55538 1.7663,0.38976 0.8558,-0.17116 1.2375,-0.0782 1.2375,0.30127 0,0.30182 0.1434,0.40041 0.3187,0.21909 0.1752,-0.18132 -0.1334,-0.63338 -0.6858,-1.00457 z m 15.237,0.76778 c 0,-0.23367 -0.298,-0.42486 -0.6623,-0.42486 -0.3643,0 -0.5442,0.19119 -0.3998,0.42486 0.1444,0.23367 0.4425,0.42485 0.6624,0.42485 0.2198,0 0.3997,-0.19118 0.3997,-0.42485 z m 4.8725,-0.63729 c -0.7103,-2.2738 -0.6441,-2.19018 -1.0968,-1.38369 -0.2897,0.51602 -0.2489,0.92979 0.1347,1.36462 0.7188,0.81467 1.2137,0.82448 0.9621,0.0191 z m -26.9162,-1.16834 c 0.2769,-0.52576 0.7122,-1.09135 0.9673,-1.25687 0.3277,-0.21261 0.3082,-0.45669 -0.067,-0.8315 -0.6792,-0.67918 -1.6153,0.18604 -2.0296,1.87594 -0.3515,1.43391 0.4102,1.57724 1.1289,0.21243 z m 20.1319,0.10621 c 0.1444,-0.23367 0.071,-0.42485 -0.1623,-0.42485 -0.2337,0 -0.543,0.19118 -0.6874,0.42485 -0.1444,0.23367 -0.071,0.42485 0.1623,0.42485 0.2336,0 0.543,-0.19118 0.6874,-0.42485 z m -22.0924,-0.84971 c 0.2874,-0.90557 -0.075,-2.54912 -0.5622,-2.54912 -0.1609,0 -0.5556,0.59445 -0.8772,1.32099 -0.497,1.12264 -0.4966,1.37684 0,1.69291 0.8776,0.55582 1.14,0.47096 1.4369,-0.46478 z m 26.8983,-0.31376 c -0.078,-0.40624 -0.4597,-0.79974 -0.8476,-0.87444 -0.5259,-0.10129 -0.6471,0.0866 -0.4766,0.73861 0.2784,1.06459 1.5277,1.19275 1.3242,0.13583 z m -68.6402,-1.35191 c 0.6426,-0.3312 1.1684,-0.7938 1.1684,-1.028 0,-0.2342 0.3174,-0.77662 0.7054,-1.20538 0.3881,-0.42875 0.5644,-0.92062 0.392,-1.09304 -0.1724,-0.17242 -1.0881,0.51699 -2.0349,1.53202 -1.3081,1.40232 -1.8088,1.70779 -2.0849,1.27201 -0.1999,-0.31542 -0.3664,-0.74874 -0.37,-0.96294 0,-0.21419 -0.1278,-0.26812 -0.2761,-0.11983 -0.1483,0.14828 -0.024,0.8622 0.2759,1.58647 0.3,0.72427 0.6603,1.16026 0.8006,0.96886 0.1404,-0.19139 0.781,-0.61897 1.4236,-0.95017 z m 49.1768,0.62861 c 0,-0.33671 -0.1912,-0.73036 -0.4248,-0.87478 -0.2337,-0.14442 -0.4249,0.13108 -0.4249,0.61221 0,0.48113 0.1912,0.87478 0.4249,0.87478 0.2336,0 0.4248,-0.27549 0.4248,-0.61221 z m 4.3548,0.33084 c -0.2921,-0.11786 -0.7701,-0.11786 -1.0622,0 -0.292,0.11786 -0.053,0.21429 0.5311,0.21429 0.5842,0 0.8232,-0.0964 0.5311,-0.21429 z m 4.5672,-0.14349 c 0,-0.23366 -0.2868,-0.42485 -0.6373,-0.42485 -0.3505,0 -0.6373,0.19119 -0.6373,0.42485 0,0.23367 0.2868,0.42486 0.6373,0.42486 0.3505,0 0.6373,-0.19119 0.6373,-0.42486 z m 2.0092,0.16817 c -0.1412,-0.14117 -0.5076,-0.15626 -0.8143,-0.0335 -0.339,0.13562 -0.2383,0.2363 0.2566,0.25668 0.4479,0.0184 0.6988,-0.082 0.5577,-0.22314 z m -20.7028,-0.80545 c 0,-0.3505 -0.1912,-0.63728 -0.4249,-0.63728 -0.2336,0 -0.4248,0.28678 -0.4248,0.63728 0,0.35051 0.1912,0.63728 0.4248,0.63728 0.2337,0 0.4249,-0.28677 0.4249,-0.63728 z m -27.6155,-0.21242 c 0,-0.23367 -0.1912,-0.42486 -0.4249,-0.42486 -0.2336,0 -0.4248,0.19119 -0.4248,0.42486 0,0.23367 0.1912,0.42485 0.4248,0.42485 0.2337,0 0.4249,-0.19118 0.4249,-0.42485 z m 39.0865,-0.84971 c 0,-0.70101 -0.1911,-1.27456 -0.4248,-1.27456 -0.2337,0 -0.4249,0.57355 -0.4249,1.27456 0,0.70101 0.1912,1.27456 0.4249,1.27456 0.2337,0 0.4248,-0.57355 0.4248,-1.27456 z m -31.4197,-0.81332 c -0.564,-1.05391 0.164,-1.24198 0.7506,-0.19388 0.213,0.38071 0.613,0.61698 0.8889,0.52504 0.313,-0.10435 -0.064,-0.96256 -1.0036,-2.28405 -1.327,-1.86647 -1.5058,-1.99141 -1.5115,-1.05612 0,0.58343 -0.1673,1.31437 -0.3638,1.62432 -0.2294,0.36181 -0.039,0.9212 0.5327,1.56268 1.0414,1.16926 1.3819,1.08352 0.7067,-0.17799 z m 29.8669,0.58257 c -0.1383,-0.36058 -0.3427,-0.56449 -0.454,-0.45312 -0.1114,0.11137 -0.077,0.40639 0.077,0.6556 0.419,0.67784 0.6638,0.54616 0.3765,-0.20248 z m -3.333,-0.61896 c -0.1444,-0.23367 -0.4424,-0.42485 -0.6623,-0.42485 -0.2199,0 -0.3998,0.19118 -0.3998,0.42485 0,0.23367 0.2981,0.42486 0.6624,0.42486 0.3642,0 0.5441,-0.19119 0.3997,-0.42486 z m -37.3387,-1.35789 c -0.3771,-0.21106 -0.6857,-0.75661 -0.6857,-1.21234 0,-0.924 0.4432,-1.06516 1.144,-0.36439 0.8404,0.84041 3.1194,-0.76668 3.0682,-2.16362 -0.015,-0.42124 -0.1329,-0.35748 -0.3464,0.18805 -0.2878,0.73524 -0.401,0.66908 -1.0371,-0.60603 -0.3928,-0.78726 -0.6083,-1.76459 -0.4791,-2.17185 0.1604,-0.50543 -0.054,-0.83218 -0.6752,-1.02937 -0.697,-0.22124 -0.7921,-0.40339 -0.4058,-0.77776 0.383,-0.37124 0.6744,-0.24758 1.2111,0.51393 0.3887,0.55153 1.1682,1.49962 1.7321,2.10686 0.9787,1.05372 1.0403,1.06612 1.351,0.27178 0.5168,-1.32174 0.4848,-1.3754 -1.5267,-2.55419 -1.1906,-0.69774 -1.9118,-1.42172 -1.9118,-1.91913 0,-1.7778 -4.1908,0.30039 -4.2344,2.09983 -0.012,0.48261 -0.1295,0.48732 -0.6838,0.0273 -0.5523,-0.45835 -0.731,-0.45662 -1.0193,0.01 -0.1922,0.31111 -0.6556,0.44821 -1.0297,0.30466 -0.5105,-0.19588 -0.6802,6.6e-4 -0.6802,0.7878 0,0.57684 0.2025,1.0488 0.4499,1.0488 0.2475,0 0.34,0.17797 0.2055,0.39549 -0.1344,0.21753 -0.042,0.52076 0.206,0.67386 0.6365,0.39339 1.6837,-0.58542 1.4046,-1.31284 -0.1309,-0.34105 0.02,-0.60737 0.3439,-0.60884 0.3171,-10e-4 1.1307,-0.29163 1.8081,-0.64488 0.6773,-0.35324 1.3305,-0.54325 1.4516,-0.42223 0.121,0.12101 0,0.22002 -0.2757,0.22002 -0.9681,0 -0.4764,1.12978 0.7523,1.72855 l 1.248,0.60815 -0.8319,1.01382 c -0.7935,0.96705 -0.8694,0.97991 -1.6443,0.27862 -0.5961,-0.5395 -1.1695,-0.65677 -2.154,-0.44054 -1.1141,0.24469 -1.3,0.44961 -1.0965,1.20837 0.1349,0.50254 0.2507,1.20048 0.2575,1.55099 0.01,0.3505 0.186,0.91176 0.3983,1.24724 0.3346,0.52883 0.4832,0.52922 1.1174,0.003 0.6381,-0.52965 0.7863,-0.51996 1.1622,0.076 0.2555,0.40505 0.7689,0.59468 1.2613,0.46592 0.7321,-0.19146 0.7492,-0.26255 0.1446,-0.6009 z m 5.6871,0.0833 c 0,-0.23367 -0.1912,-0.42485 -0.4248,-0.42485 -0.2337,0 -0.4249,0.19118 -0.4249,0.42485 0,0.23367 0.1912,0.42485 0.4249,0.42485 0.2336,0 0.4248,-0.19118 0.4248,-0.42485 z m 7.2225,-0.63728 c -0.3002,-0.3618 -0.6415,-0.56222 -0.7583,-0.44539 -0.1169,0.11684 0.033,0.50845 0.3335,0.87024 0.3002,0.3618 0.6415,0.56223 0.7583,0.44539 0.1169,-0.11683 -0.033,-0.50844 -0.3335,-0.87024 z m -28.7364,0 c 0.149,-0.38819 7e-4,-0.63728 -0.3794,-0.63728 -0.3432,0 -0.6239,0.28678 -0.6239,0.63728 0,0.3505 0.1707,0.63728 0.3794,0.63728 0.2086,0 0.4894,-0.28678 0.6239,-0.63728 z m 58.0513,-0.0251 c 0,-0.3643 -0.1911,-0.5442 -0.4248,-0.39978 -0.2337,0.14441 -0.4249,0.44247 -0.4249,0.66235 0,0.21988 0.1912,0.39978 0.4249,0.39978 0.2337,0 0.4248,-0.29806 0.4248,-0.66235 z m 2.974,0.2375 c 0,-0.23367 -0.1912,-0.42486 -0.4248,-0.42486 -0.2337,0 -0.4249,0.19119 -0.4249,0.42486 0,0.23367 0.1912,0.42485 0.4249,0.42485 0.2336,0 0.4248,-0.19118 0.4248,-0.42485 z m -36.1525,-1.53508 c -0.6173,-0.74383 -1.0115,-0.45308 -0.6528,0.48155 0.144,0.37539 0.4637,0.5578 0.7104,0.40535 0.308,-0.19035 0.2899,-0.46818 -0.058,-0.8869 z m -3.9962,0.26051 c 0.1445,-0.23366 -0.047,-0.42485 -0.4248,-0.42485 -0.3781,0 -0.5693,0.19119 -0.4249,0.42485 0.1444,0.23367 0.3356,0.42486 0.4249,0.42486 0.089,0 0.2804,-0.19119 0.4248,-0.42486 z m 13.8078,-1.27456 c 0,-0.23367 -0.084,-0.42485 -0.1874,-0.42485 -0.103,0 -0.3055,0.19118 -0.4499,0.42485 -0.1444,0.23367 -0.06,0.42486 0.1874,0.42486 0.2474,0 0.4499,-0.19119 0.4499,-0.42486 z m 22.5172,-0.50982 c 0,-0.68632 -0.1256,-0.80905 -0.4728,-0.46187 -0.26,0.26004 -0.3443,0.68065 -0.1873,0.93468 0.4394,0.71106 0.6601,0.553 0.6601,-0.47281 z m -36.325,0.085 c 0.1445,-0.23367 0.06,-0.42485 -0.1873,-0.42485 -0.2475,0 -0.4499,0.19118 -0.4499,0.42485 0,0.23367 0.084,0.42485 0.1873,0.42485 0.1031,0 0.3055,-0.19118 0.4499,-0.42485 z m 12.262,-4.46097 c 0.1345,-0.3505 0.059,-0.63728 -0.167,-0.63728 -0.2263,0 -0.4115,0.28678 -0.4115,0.63728 0,0.35051 0.075,0.63729 0.167,0.63729 0.092,0 0.277,-0.28678 0.4115,-0.63729 z m -12.4242,-1.62565 c -1.0791,-1.07902 -1.2142,-0.23814 -0.1597,0.99343 0.4399,0.51376 0.805,0.67014 0.8999,0.38546 0.088,-0.26347 -0.2453,-0.88397 -0.7402,-1.37889 z m -1.5115,-0.9159 c 0.6357,-1.18058 0.6898,-1.5863 0.2676,-2.00851 -0.59,-0.59003 -1.7993,-0.0662 -2.1287,0.92208 -0.1208,0.3623 0,0.44273 0.3504,0.22794 0.4024,-0.24871 0.4879,0.003 0.3411,1.003 -0.2563,1.74651 0.1802,1.69257 1.1696,-0.14451 z m -7.3112,-0.57912 c 0.9891,-1.03232 1.0682,-1.28349 0.5422,-1.72005 -0.3985,-0.33075 -0.7091,-0.3605 -0.8798,-0.0843 -0.1452,0.23481 -0.5445,0.31923 -0.8876,0.1876 -0.4772,-0.18315 -0.6236,0.12035 -0.6236,1.29312 0,1.84877 0.332,1.90688 1.8488,0.32361 z m -2.6985,-1.76514 c 0,-0.46734 -0.073,-0.84971 -0.1629,-0.84971 -0.09,0 -0.2629,0.38237 -0.3851,0.84971 -0.1222,0.46733 -0.049,0.8497 0.1629,0.8497 0.2118,0 0.3851,-0.38237 0.3851,-0.8497 z m 8.9758,-0.50262 c 0.879,0.14427 1.2109,-0.71029 0.7537,-1.94029 -0.3998,-1.07554 -1.6573,-1.3072 -1.6573,-0.30531 0,0.35784 -0.2657,0.75255 -0.5903,0.87715 -0.3399,0.13039 -0.4997,0.57345 -0.3766,1.04402 0.1255,0.47986 0.4132,0.69224 0.6965,0.51423 0.2656,-0.16679 0.7938,-0.2522 1.174,-0.1898 z m 3.7698,-7.80711 c 0,-0.36429 -0.1943,-0.54227 -0.4318,-0.3955 -0.2375,0.14678 -0.3218,0.44483 -0.1874,0.66236 0.3642,0.58929 0.6192,0.47941 0.6192,-0.26686 z m -0.9844,-1.96643 c -0.1356,-0.33892 -0.2363,-0.23825 -0.2566,0.25669 -0.019,0.44786 0.082,0.69879 0.2231,0.55762 0.1412,-0.14118 0.1563,-0.50762 0.034,-0.81431 z m 3.3888,-2.37505 c 0,-0.81669 -0.8599,-0.37916 -1.3368,0.67657 -0.2307,0.51064 -0.5653,0.92844 -0.7435,0.92844 -0.1783,0 -0.3241,0.20572 -0.3241,0.45716 0,0.25144 0.5403,0.0125 1.2007,-0.53106 0.6604,-0.54353 1.2021,-1.23253 1.2037,-1.53111 z m 26.1511,129.8312 c -0.7971,-0.79709 -0.6116,-1.2677 0.4407,-1.11823 0.5258,0.0747 0.956,0.4066 0.956,0.73764 0,0.80886 -0.7611,1.01625 -1.3967,0.38059 z m -33.0165,-1.1949 c -0.3323,-0.53769 0.2301,-0.53769 1.0621,0 0.5493,0.35493 0.538,0.41274 -0.081,0.41835 -0.3951,0.003 -0.8366,-0.18468 -0.981,-0.41835 z m -2.7615,-0.84971 c 0,-0.46734 0.089,-0.8497 0.1974,-0.8497 0.1087,0 0.4022,0.38236 0.6523,0.8497 0.3629,0.6782 0.3231,0.84971 -0.1975,0.84971 -0.369,0 -0.6522,-0.36899 -0.6522,-0.84971 z m -2.5156,-0.67268 c 0.02,-0.49493 0.121,-0.59561 0.2567,-0.25668 0.1227,0.30669 0.1076,0.67312 -0.034,0.8143 -0.1411,0.14117 -0.2416,-0.10976 -0.2231,-0.55762 z m 70.4922,-5.27527 c 0,-0.23367 0.1911,-0.42485 0.4248,-0.42485 0.2337,0 0.4249,0.19118 0.4249,0.42485 0,0.23367 -0.1912,0.42485 -0.4249,0.42485 -0.2337,0 -0.4248,-0.19118 -0.4248,-0.42485 z m -83.6962,-10.64642 c 0,-0.24746 0.1912,-0.33177 0.4248,-0.18735 0.2337,0.14441 0.4249,0.34688 0.4249,0.44992 0,0.10305 -0.1912,0.18736 -0.4249,0.18736 -0.2336,0 -0.4248,-0.20247 -0.4248,-0.44993 z m -3.3989,-2.52405 c -0.5153,-0.33303 -0.4543,-0.41308 0.3187,-0.41835 0.5257,-0.003 0.9559,0.18468 0.9559,0.41835 0,0.53231 -0.4509,0.53231 -1.2746,0 z m 5.7356,-0.42485 c 0.1444,-0.23367 0.3468,-0.42486 0.4499,-0.42486 0.103,0 0.1873,0.19119 0.1873,0.42486 0,0.23367 -0.2024,0.42485 -0.4499,0.42485 -0.2474,0 -0.3318,-0.19118 -0.1873,-0.42485 z m 79.5313,-1.86644 c -0.1739,-0.44237 -0.216,-0.90439 -0.094,-1.02673 0.3875,-0.38749 0.7285,0.2475 0.5661,1.05429 -0.1488,0.73938 -0.1715,0.73805 -0.4724,-0.0275 z m -79.1258,-7.24861 c -0.1625,-1.08372 -0.1912,-2.07469 -0.064,-2.20214 0.1274,-0.12746 0.3647,0.65494 0.5272,1.73866 0.1625,1.08373 0.1912,2.07469 0.064,2.20215 -0.1274,0.12745 -0.3647,-0.65495 -0.5272,-1.73867 z m 4.9387,-11.52577 c 0.02,-0.49493 0.121,-0.5956 0.2567,-0.25668 0.1227,0.30669 0.1076,0.67313 -0.034,0.8143 -0.1411,0.14117 -0.2416,-0.10975 -0.2231,-0.55762 z m 2.9404,-4.00071 c 0,-0.23367 0.1912,-0.42485 0.4249,-0.42485 0.2336,0 0.4248,0.19118 0.4248,0.42485 0,0.23367 -0.1912,0.42486 -0.4248,0.42486 -0.2337,0 -0.4249,-0.19119 -0.4249,-0.42486 z m -23.3669,-2.41079 c -3.0894,-2.56779 -5.1664,-4.46568 -5.948,-5.43501 -0.5916,-0.7337 -0.5763,-0.7561 0.2124,-0.31232 0.8882,0.49969 8.655,7.71848 8.2847,7.70007 -0.1169,-0.006 -1.264,-0.88454 -2.5491,-1.95274 z m 22.0924,0.40547 c 0,-0.42034 -0.3563,-0.98673 -0.7917,-1.25863 -0.4353,-0.2719 -0.8975,-0.8993 -1.0269,-1.39421 -0.1967,-0.7524 -0.093,-0.85472 0.6324,-0.62445 0.5787,0.18366 0.7709,0.11871 0.577,-0.19497 -0.3215,-0.52021 0.1804,-0.60823 1.2117,-0.21249 1.003,0.3849 0.8437,1.40688 -0.1777,1.13978 -1.0613,-0.27753 -1.1012,0.47509 -0.08,1.49685 0.6323,0.63221 0.6703,0.86361 0.2125,1.29131 -0.4469,0.41746 -0.5578,0.36911 -0.5578,-0.24319 z m 2.5491,0.0684 c 0,-0.3643 0.1943,-0.54227 0.4318,-0.3955 0.2374,0.14677 0.3217,0.44483 0.1873,0.66235 -0.3642,0.5893 -0.6191,0.47942 -0.6191,-0.26685 z m 0.4248,-2.0992 c 0,-0.3505 0.1912,-0.63728 0.4249,-0.63728 0.2337,0 0.4248,0.28678 0.4248,0.63728 0,0.35051 -0.1911,0.63728 -0.4248,0.63728 -0.2337,0 -0.4249,-0.28677 -0.4249,-0.63728 z m -32.7014,-5.29408 c -0.3437,-0.21738 -0.5144,-0.50585 -0.3792,-0.64104 0.1352,-0.13518 0.4876,0.0456 0.7832,0.40175 0.6129,0.73849 0.4954,0.80809 -0.404,0.23929 z m -4.796,-4.94328 c -2.6235,-2.50999 -3.8763,-4.06885 -2.143,-2.66648 1.4973,1.21142 5.3199,5.09303 5.1666,5.24634 -0.088,0.088 -1.4486,-1.07295 -3.0236,-2.57986 z m 36.8373,2.34055 c -0.3646,-0.5899 0.4435,-1.42158 1.0294,-1.05947 0.4879,0.30156 0.1755,1.52134 -0.3896,1.52134 -0.1949,0 -0.4828,-0.20784 -0.6398,-0.46187 z m -1.889,-3.36181 c 0,-0.23367 0.2025,-0.42486 0.4499,-0.42486 0.2475,0 0.3318,0.19119 0.1874,0.42486 -0.1444,0.23366 -0.3469,0.42485 -0.4499,0.42485 -0.1031,0 -0.1874,-0.19119 -0.1874,-0.42485 z m -1.4827,-0.85664 c 0.1468,-0.23748 0.4448,-0.3218 0.6624,-0.18736 0.5892,0.3642 0.4794,0.61914 -0.2669,0.61914 -0.3643,0 -0.5423,-0.1943 -0.3955,-0.43178 z m -0.854,-1.69249 c -0.1444,-0.23367 0.047,-0.42485 0.4249,-0.42485 0.378,0 0.5692,0.19118 0.4248,0.42485 -0.1444,0.23367 -0.3356,0.42486 -0.4248,0.42486 -0.089,0 -0.2805,-0.19119 -0.4249,-0.42486 z m -40.9563,-4.5364 -3.5691,-3.57836 -1.2142,-4.54591 c -1.7937,-6.71596 -1.7954,-6.72393 -1.3138,-6.24532 0.525,0.52177 1.6203,3.88509 2.2723,6.97744 0.4325,2.05117 1.7245,4.88604 2.1396,4.69482 0.086,-0.0396 1.2263,0.99831 2.5344,2.30635 1.308,1.30805 2.2821,2.37826 2.1646,2.37826 -0.1175,0 0.1324,0.38237 0.5554,0.84971 0.4229,0.46734 0.5959,0.82533 0.3845,0.79553 -0.2115,-0.0298 -1.9906,-1.66443 -3.9537,-3.63252 z m 151.8956,2.60814 c -0.4099,-1.06838 -0.289,-1.34405 0.2118,-0.48278 0.248,0.42644 0.3614,0.86485 0.252,0.97424 -0.1093,0.10939 -0.3181,-0.11177 -0.4638,-0.49146 z m -110.8569,-0.0428 c -0.4901,-0.49003 0.159,-1.00287 1.2693,-1.00287 0.9199,0 1.0069,0.099 0.5602,0.63728 -0.553,0.66622 -1.3664,0.82877 -1.8295,0.36559 z m -45.9832,-4.38342 c 0.9255,-1.02257 1.1375,-1.09073 0.8201,-0.26356 -0.1275,0.33244 -0.541,0.72303 -0.9187,0.86799 -0.5643,0.21652 -0.5467,0.10866 0.099,-0.60443 z m 34.5352,-1.48964 c 0.1336,-0.69857 0.7002,-1.22287 1.7952,-1.661 0.8801,-0.35213 1.7197,-0.95191 1.8659,-1.33286 0.3264,-0.85053 2.0428,-0.68789 2.2867,0.21668 0.1527,0.56647 0.1218,0.56647 -0.2789,0 -0.3697,-0.52287 -0.4609,-0.4466 -0.5075,0.42485 -0.031,0.58418 -0.031,1.27894 7e-4,1.54391 0.074,0.62251 -2.434,1.0008 -2.6461,0.39904 -0.1007,-0.28559 -0.4617,-0.2023 -0.9663,0.22291 -1.4588,1.2294 -1.756,1.26516 -1.5498,0.18647 z m 117.1542,-4.05176 c 0.1444,-0.23367 0.5494,-0.42486 0.8999,-0.42486 0.3505,0 0.5191,0.19119 0.3747,0.42486 -0.1444,0.23367 -0.5494,0.42485 -0.8999,0.42485 -0.3505,0 -0.5191,-0.19118 -0.3747,-0.42485 z m -113.2235,-2.76155 c 0,-0.35051 0.1912,-0.63728 0.4248,-0.63728 0.2337,0 0.4249,0.28677 0.4249,0.63728 0,0.3505 -0.1912,0.63728 -0.4249,0.63728 -0.2336,0 -0.4248,-0.28678 -0.4248,-0.63728 z m 3.1864,-0.63728 c -0.1444,-0.23367 -0.071,-0.42486 0.1623,-0.42486 0.2336,0 0.543,0.19119 0.6874,0.42486 0.1444,0.23367 0.071,0.42485 -0.1623,0.42485 -0.2337,0 -0.543,-0.19118 -0.6874,-0.42485 z m -61.8564,-3.3239 c 0.2583,-0.48253 0.6788,-1.00663 0.9345,-1.16468 0.3332,-0.20589 0.3319,-0.0386 0,0.58996 -0.2583,0.48253 -0.6788,1.00663 -0.9345,1.16467 -0.3331,0.2059 -0.3319,0.0386 0,-0.58995 z m 17.8885,-2.68739 c -0.2619,-1.01668 -0.739,-2.70884 -1.0602,-3.76035 -0.3211,-1.05151 -0.7018,-2.58099 -0.8459,-3.39883 -0.443,-2.51329 1.6773,2.88877 2.3171,5.90376 0.6378,3.00575 0.3032,4.02788 -0.411,1.25542 z m -15.9365,0.48819 c 0.1444,-0.23367 0.3469,-0.42486 0.4499,-0.42486 0.103,0 0.1874,0.19119 0.1874,0.42486 0,0.23367 -0.2025,0.42485 -0.45,0.42485 -0.2474,0 -0.3317,-0.19118 -0.1873,-0.42485 z m 162.0817,-0.0455 c 0,-0.25866 -0.2967,-0.35645 -0.6593,-0.21729 -0.3781,0.14509 -0.5487,0.0739 -0.3998,-0.16697 0.2315,-0.37453 -0.3177,-0.60036 -1.1561,-0.4754 -0.1668,0.0249 -0.1821,-0.27062 -0.034,-0.65666 0.1807,-0.47091 0.1057,-0.60079 -0.2278,-0.39468 -0.2733,0.16895 -0.497,0.10473 -0.497,-0.14273 0,-0.24747 -0.2744,-0.44993 -0.6098,-0.44993 -0.3354,0 -0.8557,-0.68009 -1.1562,-1.5113 -0.48,-1.32729 -0.6092,-1.42557 -1.0614,-0.80716 -0.2832,0.38727 -0.7025,0.5882 -0.9317,0.44651 -0.2293,-0.14169 -0.4984,-0.0175 -0.598,0.2761 -0.1763,0.51983 -1.1367,-0.36609 -2.6452,-2.44026 -0.5879,-0.80825 -0.6187,-0.78111 -0.6316,0.55614 -0.01,0.77321 0.1436,1.30876 0.3356,1.19011 0.4259,-0.26323 1.8059,1.26787 1.4571,1.61667 -0.5144,0.51436 -0.9746,0.20185 -1.9807,-1.34487 -1.381,-2.12295 -1.2281,-3.78236 0.5056,-5.49042 0.7526,-0.74145 1.3684,-1.13887 1.3684,-0.88316 0,0.25572 0.3205,0.81908 0.7122,1.25192 0.546,0.60332 0.5955,0.90363 0.2124,1.28677 -0.7003,0.70026 -0.6228,1.60441 0.1375,1.60441 0.3505,0 0.6373,0.21317 0.6373,0.47371 0,0.29497 0.3831,0.22271 1.0152,-0.19149 0.9359,-0.6132 1.0709,-0.60367 1.7276,0.12195 0.3918,0.43293 0.6519,1.14045 0.578,1.57227 -0.074,0.43181 0.08,0.74567 0.3409,0.69746 0.2615,-0.0482 1.1162,0.48452 1.8995,1.18381 1.6035,1.43165 3.2083,1.9877 3.8589,1.33709 0.2982,-0.29814 -0.1893,-0.80251 -1.5414,-1.59488 l -1.9774,-1.15885 0.9354,-0.99566 c 0.7746,-0.82456 0.8427,-1.1073 0.3961,-1.64538 -0.5841,-0.70381 -0.4507,-0.79207 0.5922,-0.39186 0.8479,0.32538 0.8744,1.39054 0.043,1.70977 -0.4766,0.18287 -0.5246,0.43769 -0.1975,1.0488 0.5529,1.03306 1.2901,1.02121 2.6423,-0.0425 1.3718,-1.07901 1.3612,-1.08061 2.3874,0.36046 l 0.8617,1.21017 -1.7206,1.12653 c -0.9464,0.6196 -1.8713,1.12654 -2.0554,1.12654 -0.1841,0 -0.5727,0.28678 -0.8636,0.63728 -0.6169,0.74337 -1.6994,0.84973 -1.6994,0.16697 z m -157.1959,-5.34595 c 0,-0.23367 0.3824,-0.77089 0.8497,-1.19383 0.4673,-0.42294 0.8497,-0.57779 0.8497,-0.34412 0,0.23367 -0.3824,0.77089 -0.8497,1.19383 -0.4673,0.42294 -0.8497,0.57779 -0.8497,0.34412 z m 155.4965,-1.79571 c 0,-0.72047 0.1912,-1.30996 0.4248,-1.30996 0.2337,0 0.4249,0.38237 0.4249,0.84971 0,0.46734 0.014,0.98831 0.032,1.15772 0.018,0.16942 -0.1737,0.37653 -0.4249,0.46026 -0.2599,0.0866 -0.4567,-0.41231 -0.4567,-1.15773 z m -1.2746,-0.46025 c 0,-0.77496 0.1763,-1.21574 0.4249,-1.06214 0.2337,0.14442 0.4248,0.62238 0.4248,1.06214 0,0.43976 -0.1911,0.91772 -0.4248,1.06213 -0.2486,0.15361 -0.4249,-0.28718 -0.4249,-1.06213 z m -11.6834,0 c 0.1444,-0.23367 0.3468,-0.42486 0.4499,-0.42486 0.103,0 0.1873,0.19119 0.1873,0.42486 0,0.23367 -0.2024,0.42485 -0.4499,0.42485 -0.2475,0 -0.3318,-0.19118 -0.1873,-0.42485 z m -77.6509,-1.10639 c -0.1704,-0.17039 -0.3098,-0.60294 -0.3098,-0.96124 0,-0.47821 0.1257,-0.52575 0.4726,-0.17879 0.26,0.25996 0.3994,0.69252 0.3098,0.96124 -0.09,0.26872 -0.3022,0.34917 -0.4726,0.17879 z m 77.4449,-0.0369 c 0,-0.18905 0.1919,-0.6305 0.4184,-0.981 0.3549,-0.5492 0.4127,-0.53799 0.4183,0.0811 0,0.39513 -0.1847,0.83658 -0.4183,0.98099 -0.2337,0.14442 -0.4219,0.10791 -0.4184,-0.0811 z m -96.8731,-3.04 c 0,-0.19777 0.3007,-0.9625 0.6684,-1.69941 0.685,-1.37326 1.4558,-1.78323 1.4558,-0.77435 0,0.31102 0.478,0.82129 1.0622,1.13393 0.5841,0.31264 1.0621,0.72731 1.0621,0.9215 0,0.59104 -0.5334,0.39919 -1.5528,-0.55849 l -0.9703,-0.91156 -0.4274,1.12398 c -0.3975,1.04555 -1.298,1.57587 -1.298,0.7644 z m 21.2427,-2.61439 c 0,-0.23367 0.1799,-0.42486 0.3997,-0.42486 0.2199,0 0.518,0.19119 0.6624,0.42486 0.1444,0.23367 -0.035,0.42485 -0.3998,0.42485 -0.3643,0 -0.6623,-0.19118 -0.6623,-0.42485 z m -20.1806,-1.69942 c -0.1444,-0.23367 -0.071,-0.42485 0.1623,-0.42485 0.2336,0 0.543,0.19118 0.6874,0.42485 0.1444,0.23367 0.071,0.42485 -0.1623,0.42485 -0.2337,0 -0.543,-0.19118 -0.6874,-0.42485 z m 93.1138,-1.98265 c -0.1558,-0.15578 -0.2833,-0.48079 -0.2833,-0.72225 0,-0.26622 0.1979,-0.24113 0.5028,0.0637 0.2765,0.27651 0.404,0.60152 0.2832,0.72225 -0.1207,0.12073 -0.3469,0.092 -0.5027,-0.0637 z m -4.5318,-2.47831 c 0,-0.11684 0.3824,-0.5948 0.8497,-1.06214 0.8557,-0.85567 1.0683,-0.63918 0.5918,0.60253 -0.2306,0.60118 -1.4415,0.98723 -1.4415,0.45961 z m -29.1209,-1.09191 c -0.1545,-0.25005 -0.6915,-0.6203 -1.1934,-0.82278 -0.7279,-0.2937 -0.7621,-0.3736 -0.1689,-0.39508 0.4744,-0.0172 0.7496,-0.37282 0.7604,-0.98285 0.014,-0.76124 0.1865,-0.61601 0.8497,0.71314 0.458,0.91799 0.8328,1.73052 0.8328,1.80563 0,0.33528 -0.8273,0.0918 -1.0806,-0.31806 z m 25.7221,0.005 c 0,-0.24746 0.1912,-0.33177 0.4248,-0.18735 0.2337,0.14441 0.4249,0.34688 0.4249,0.44993 0,0.10304 -0.1912,0.18735 -0.4249,0.18735 -0.2336,0 -0.4248,-0.20247 -0.4248,-0.44993 z m -37.0685,-1.51135 c -0.1642,-0.26085 0.079,-0.81624 0.5411,-1.23419 0.4795,-0.43396 0.8397,-0.54943 0.8397,-0.26921 0,0.26989 -0.1772,0.4907 -0.3937,0.4907 -0.2166,0 -0.46,0.33457 -0.5411,0.7435 -0.094,0.47541 -0.255,0.57248 -0.446,0.2692 z m 13.0393,-3.18527 c -1.1982,-2.31699 -1.7763,-4.38688 -1.468,-5.25561 0.2549,-0.71801 0.3756,-0.61162 0.8144,0.71791 0.2833,0.85846 0.4563,1.90693 0.3844,2.32993 -0.088,0.51461 0.1153,0.74956 0.6128,0.71008 0.5734,-0.0455 0.7435,0.27031 0.7435,1.38077 0,1.78272 -0.2138,1.80571 -1.0871,0.11692 z m -19.8724,-3.63376 c -0.1558,-0.15578 -0.2832,-0.66561 -0.2832,-1.13295 0,-1.0654 0.5617,-0.56508 0.6457,0.57513 0.069,0.93093 0.046,0.96607 -0.3625,0.55782 z m 20.393,-0.84971 c -0.4888,-0.48887 -0.3094,-0.99134 0.3541,-0.99134 0.3505,0 0.6372,0.28678 0.6372,0.63728 0,0.66344 -0.5024,0.8429 -0.9913,0.35404 z m -26.1993,-5.45231 c 0,-0.3505 0.1852,-0.63728 0.4115,-0.63728 0.2263,0 0.3015,0.28678 0.167,0.63728 -0.1345,0.35051 -0.3197,0.63728 -0.4115,0.63728 -0.092,0 -0.167,-0.28677 -0.167,-0.63728 z m 9.1374,0.2173 c -0.1489,-0.24084 0.022,-0.31206 0.3997,-0.16698 0.7361,0.28244 0.8707,0.58696 0.2596,0.58696 -0.2199,0 -0.5166,-0.18899 -0.6593,-0.41998 z m -6.1634,-1.49186 c 0,-0.3505 0.075,-0.63728 0.1669,-0.63728 0.092,0 0.2771,0.28678 0.4116,0.63728 0.1345,0.35051 0.059,0.63728 -0.167,0.63728 -0.2263,0 -0.4115,-0.28677 -0.4115,-0.63728 z m -17.6235,-0.19957 c -0.1401,-0.22659 0.458,-0.70975 1.329,-1.07367 1.3969,-0.58366 1.6576,-0.58767 2.2113,-0.034 0.6801,0.6801 0.725,0.66489 -2.1647,0.73281 -0.641,0.0151 -1.0599,0.19827 -0.9308,0.40713 0.129,0.20885 0.1391,0.37973 0.022,0.37973 -0.1168,0 -0.327,-0.1854 -0.467,-0.412 z m 11.6974,-0.0764 c 0.1546,-1.12604 -0.03,-1.63584 -0.5933,-1.63584 -0.3143,0 -0.9307,-0.397 -1.3699,-0.88223 -0.7851,-0.86757 -0.7809,-0.89549 0.2528,-1.68047 0.9246,-0.7021 1.0691,-0.71711 1.1992,-0.1246 0.082,0.3705 -0.1097,0.83701 -0.4248,1.03668 -0.4132,0.26185 -0.2994,0.36486 0.4081,0.36955 0.5396,0.004 0.871,0.18448 0.7366,0.40201 -0.1345,0.21752 -0.05,0.51558 0.1873,0.66235 0.5688,0.35152 0.5544,1.79021 -0.022,2.14611 -0.2493,0.15408 -0.4178,0.022 -0.3745,-0.29356 z m -18.2771,-1.3172 c -0.01,-0.40892 -0.2281,-0.74349 -0.4904,-0.74349 -0.3099,0 -0.2728,-0.24702 0.1062,-0.70577 0.5235,-0.6336 0.4637,-0.68307 -0.5852,-0.48377 -1.5506,0.29462 -1.4732,-0.0542 0.3313,-1.494 1.3554,-1.08147 1.4802,-1.35727 1.2982,-2.86776 -0.1995,-1.6551 -0.1876,-1.67122 1.2342,-1.67122 1.7081,0 4.0985,0.85113 3.2595,1.16057 -0.3125,0.11527 -0.781,-0.003 -1.0409,-0.26307 -0.26,-0.25995 -1.0988,-0.47265 -1.8642,-0.47265 -1.2668,0 -1.3591,0.0857 -1.0303,0.95593 0.2544,0.67347 0.128,1.38922 -0.428,2.42242 -0.859,1.59648 -0.341,2.55755 0.8566,1.58938 0.4914,-0.39727 0.5579,-0.39202 0.3078,0.0243 -0.1793,0.29843 -0.111,0.53106 0.156,0.53106 0.2612,0 0.3658,0.17672 0.2323,0.3927 -0.1335,0.21599 0.094,0.48059 0.506,0.588 0.4436,0.11572 0.2484,0.21538 -0.4791,0.24458 -0.6752,0.0271 -1.4817,0.38386 -1.7921,0.79278 -0.5375,0.70809 -0.565,0.70809 -0.5779,0 z m 2.7535,-3.80952 c 0.2182,-1.16308 0.1261,-1.5475 -0.4211,-1.75747 -0.7537,-0.28924 -0.4996,-1.13322 0.3345,-1.11095 0.2783,0.007 0.8531,0.27668 1.2774,0.59833 0.6699,0.50784 0.6979,0.71359 0.2125,1.56326 -0.3075,0.53815 -0.8118,1.25229 -1.1208,1.587 -0.4714,0.51066 -0.5169,0.36908 -0.2825,-0.88017 z m 6.2316,-6.81183 c 0.085,-0.59839 0.477,-1.00456 1.0482,-1.08598 0.7417,-0.10573 0.9007,0.0731 0.8497,0.95562 -0.048,0.83417 -0.291,1.08575 -1.0482,1.08598 -0.779,2.4e-4 -0.957,-0.19995 -0.8497,-0.95562 z m 8.8453,0.0929 c 0,-0.22633 0.2867,-0.41152 0.6372,-0.41152 0.3505,0 0.6373,0.0751 0.6373,0.16698 0,0.0918 -0.2868,0.27701 -0.6373,0.41152 -0.3505,0.1345 -0.6372,0.0594 -0.6372,-0.16698 z m -3.8237,-0.36197 c 0,-0.26092 0.4546,-0.4744 1.0102,-0.4744 0.5557,0 1.6966,-0.28678 2.5355,-0.63728 1.7486,-0.73061 1.9774,-0.76538 1.9774,-0.30054 0,0.1852 -0.9081,0.58881 -2.0181,0.8969 -1.1099,0.30809 -2.3526,0.65681 -2.7615,0.77494 -0.4089,0.11814 -0.7435,10e-4 -0.7435,-0.25962 z m -0.8497,-1.73563 c 0,-0.55256 0.2071,-0.75688 0.6104,-0.60212 0.3358,0.12884 0.5065,0.50521 0.3794,0.83638 -0.3401,0.88626 -0.9898,0.73249 -0.9898,-0.23426 z m -4.1272,-1.41558 c 0.5174,-0.53757 1.0193,-0.92111 1.1152,-0.85232 0.2479,0.17781 -1.2978,1.82971 -1.7121,1.82971 -0.1891,0 0.08,-0.43983 0.5969,-0.97739 z m -3.4462,-0.12839 c 0.3807,-0.38074 0.896,-0.62227 1.1449,-0.53673 0.249,0.0855 -0.062,0.39706 -0.6922,0.69226 -1.0582,0.49604 -1.0925,0.48425 -0.4527,-0.15553 z m 7.4317,-0.0272 c -0.1557,-0.15578 -0.2774,-0.58594 -0.2703,-0.95592 0.011,-0.55244 0.093,-0.53408 0.4638,0.10268 0.4575,0.7867 0.3249,1.37157 -0.1935,0.85324 z m -1.341,-2.69767 c 0.1467,-0.23748 0.4448,-0.32179 0.6623,-0.18735 0.5893,0.3642 0.4794,0.61914 -0.2668,0.61914 -0.3643,0 -0.5423,-0.19431 -0.3955,-0.43179 z"
   id="path76" /><text
   xml:space="preserve"
   style="font-style:normal;font-weight:normal;font-size:26.5534px;line-height:0;font-family:sans-serif;fill:#f2f2f2;fill-opacity:1;stroke:none;stroke-width:0.663834"
   x="1091.0166"
   y="597.92889"
   id="text94"><tspan
     sodipodi:role="line"
     x="1091.0166"
     y="597.92889"
     id="tspan96"
     style="font-size:15.932px;line-height:1.05;fill:#f2f2f2;stroke-width:0.663834">Podemos</tspan><tspan
     sodipodi:role="line"
     x="1091.0166"
     y="614.65747"
     style="font-size:15.932px;line-height:1.05;fill:#f2f2f2;stroke-width:0.663834"
     id="tspan100">Aprender</tspan></text><text
   xml:space="preserve"
   id="text1146"
   style="font-style:normal;font-weight:normal;font-size:40px;line-height:1.25;font-family:sans-serif;white-space:pre;shape-inside:url(#rect1148);fill:#000000;fill-opacity:1;stroke:none;"
   x="0"
   y="0"
   transform="translate(-5.1992892,14.511498)"><tspan
     x="104.88672"
     y="110.41588"><tspan
       style="font-size:42.6667px;text-align:justify;text-anchor:start;fill:#000000">TPL1
</tspan></tspan><tspan
     x="104.88672"
     y="163.74925"><tspan
       style="font-size:42.6667px;text-align:justify;text-anchor:start;fill:#000000">TPL2
</tspan></tspan><tspan
     x="104.88672"
     y="217.08262"><tspan
       style="font-size:42.6667px;text-align:justify;text-anchor:start;fill:#000000">TPL3
</tspan></tspan><tspan
     x="104.88672"
     y="270.416"><tspan
       style="font-size:42.6667px;text-align:justify;text-anchor:start;fill:#000000">TPL4
</tspan></tspan><tspan
     x="104.88672"
     y="323.74937"><tspan
       style="font-size:42.6667px;text-align:justify;text-anchor:start;fill:#000000">TPL5
</tspan></tspan><tspan
     x="104.88672"
     y="377.08275"><tspan
       style="font-size:42.6667px;text-align:justify;text-anchor:start;fill:#000000">TPL6
</tspan></tspan><tspan
     x="104.88672"
     y="430.41612"><tspan
       style="font-size:42.6667px;text-align:justify;text-anchor:start;fill:#000000">TPL7
</tspan></tspan><tspan
     x="104.88672"
     y="483.74949"><tspan
       style="font-size:42.6667px;text-align:justify;text-anchor:start;fill:#000000">TPL8
</tspan></tspan>
</text></svg>
